%FSLAX23Y23*%
%MOIN*%
G70*
G01*
G75*
%ADD10R,0.028X0.035*%
%ADD11R,0.063X0.016*%
%ADD12R,0.014X0.063*%
%ADD13O,0.055X0.018*%
%ADD14R,0.035X0.031*%
%ADD15C,0.015*%
%ADD16C,0.020*%
%ADD17C,0.007*%
%ADD18C,0.005*%
%ADD19C,0.059*%
%ADD20C,0.100*%
%ADD21R,0.059X0.059*%
%ADD22C,0.029*%
%ADD23R,0.039X0.020*%
%ADD24R,0.020X0.039*%
%ADD25R,0.035X0.028*%
%ADD26C,0.010*%
%ADD27C,0.024*%
%ADD28C,0.010*%
%ADD29C,0.008*%
D18*
X2385Y3840D02*
Y3870D01*
X2400D01*
X2405Y3865D01*
Y3855D01*
X2400Y3850D01*
X2385D01*
X2395D02*
X2405Y3840D01*
X2415D02*
X2425D01*
X2420D01*
Y3870D01*
X2415Y3865D01*
X2440Y3845D02*
X2445Y3840D01*
X2455D01*
X2460Y3845D01*
Y3865D01*
X2455Y3870D01*
X2445D01*
X2440Y3865D01*
Y3860D01*
X2445Y3855D01*
X2460D01*
X3961Y4166D02*
X3971D01*
X3966D01*
Y4136D01*
X3961D01*
X3971D01*
X3986D02*
Y4166D01*
X4001D01*
X4006Y4161D01*
Y4151D01*
X4001Y4146D01*
X3986D01*
X3996D02*
X4006Y4136D01*
X4016Y4161D02*
X4021Y4166D01*
X4031D01*
X4036Y4161D01*
Y4156D01*
X4031Y4151D01*
X4026D01*
X4031D01*
X4036Y4146D01*
Y4141D01*
X4031Y4136D01*
X4021D01*
X4016Y4141D01*
X2670Y4165D02*
X2665Y4170D01*
X2655D01*
X2650Y4165D01*
Y4145D01*
X2655Y4140D01*
X2665D01*
X2670Y4145D01*
X2680Y4140D02*
X2690D01*
X2685D01*
Y4170D01*
X2680Y4165D01*
X3060Y4160D02*
X3055Y4165D01*
X3045D01*
X3040Y4160D01*
Y4140D01*
X3045Y4135D01*
X3055D01*
X3060Y4140D01*
X3090Y4135D02*
X3070D01*
X3090Y4155D01*
Y4160D01*
X3085Y4165D01*
X3075D01*
X3070Y4160D01*
X3465Y4155D02*
X3460Y4160D01*
X3450D01*
X3445Y4155D01*
Y4135D01*
X3450Y4130D01*
X3460D01*
X3465Y4135D01*
X3475Y4155D02*
X3480Y4160D01*
X3490D01*
X3495Y4155D01*
Y4150D01*
X3490Y4145D01*
X3485D01*
X3490D01*
X3495Y4140D01*
Y4135D01*
X3490Y4130D01*
X3480D01*
X3475Y4135D01*
X3850Y4155D02*
X3845Y4160D01*
X3835D01*
X3830Y4155D01*
Y4135D01*
X3835Y4130D01*
X3845D01*
X3850Y4135D01*
X3875Y4130D02*
Y4160D01*
X3860Y4145D01*
X3880D01*
X4235Y4160D02*
X4230Y4165D01*
X4220D01*
X4215Y4160D01*
Y4140D01*
X4220Y4135D01*
X4230D01*
X4235Y4140D01*
X4265Y4165D02*
X4245D01*
Y4150D01*
X4255Y4155D01*
X4260D01*
X4265Y4150D01*
Y4140D01*
X4260Y4135D01*
X4250D01*
X4245Y4140D01*
X4615Y4160D02*
X4610Y4165D01*
X4600D01*
X4595Y4160D01*
Y4140D01*
X4600Y4135D01*
X4610D01*
X4615Y4140D01*
X4645Y4165D02*
X4635Y4160D01*
X4625Y4150D01*
Y4140D01*
X4630Y4135D01*
X4640D01*
X4645Y4140D01*
Y4145D01*
X4640Y4150D01*
X4625D01*
X5040Y4155D02*
X5035Y4160D01*
X5025D01*
X5020Y4155D01*
Y4135D01*
X5025Y4130D01*
X5035D01*
X5040Y4135D01*
X5050Y4160D02*
X5070D01*
Y4155D01*
X5050Y4135D01*
Y4130D01*
X2980Y4160D02*
X2975Y4165D01*
X2965D01*
X2960Y4160D01*
Y4140D01*
X2965Y4135D01*
X2975D01*
X2980Y4140D01*
X2990D02*
X2995Y4135D01*
X3005D01*
X3010Y4140D01*
Y4160D01*
X3005Y4165D01*
X2995D01*
X2990Y4160D01*
Y4155D01*
X2995Y4150D01*
X3010D01*
X3375Y4155D02*
X3370Y4160D01*
X3360D01*
X3355Y4155D01*
Y4135D01*
X3360Y4130D01*
X3370D01*
X3375Y4135D01*
X3385Y4130D02*
X3395D01*
X3390D01*
Y4160D01*
X3385Y4155D01*
X3410D02*
X3415Y4160D01*
X3425D01*
X3430Y4155D01*
Y4135D01*
X3425Y4130D01*
X3415D01*
X3410Y4135D01*
Y4155D01*
X3760D02*
X3755Y4160D01*
X3745D01*
X3740Y4155D01*
Y4135D01*
X3745Y4130D01*
X3755D01*
X3760Y4135D01*
X3770Y4130D02*
X3780D01*
X3775D01*
Y4160D01*
X3770Y4155D01*
X3795Y4130D02*
X3805D01*
X3800D01*
Y4160D01*
X3795Y4155D01*
X4140Y4160D02*
X4135Y4165D01*
X4125D01*
X4120Y4160D01*
Y4140D01*
X4125Y4135D01*
X4135D01*
X4140Y4140D01*
X4150Y4135D02*
X4160D01*
X4155D01*
Y4165D01*
X4150Y4160D01*
X4195Y4135D02*
X4175D01*
X4195Y4155D01*
Y4160D01*
X4190Y4165D01*
X4180D01*
X4175Y4160D01*
X4525D02*
X4520Y4165D01*
X4510D01*
X4505Y4160D01*
Y4140D01*
X4510Y4135D01*
X4520D01*
X4525Y4140D01*
X4535Y4135D02*
X4545D01*
X4540D01*
Y4165D01*
X4535Y4160D01*
X4560D02*
X4565Y4165D01*
X4575D01*
X4580Y4160D01*
Y4155D01*
X4575Y4150D01*
X4570D01*
X4575D01*
X4580Y4145D01*
Y4140D01*
X4575Y4135D01*
X4565D01*
X4560Y4140D01*
X4925Y4160D02*
X4920Y4165D01*
X4910D01*
X4905Y4160D01*
Y4140D01*
X4910Y4135D01*
X4920D01*
X4925Y4140D01*
X4935Y4135D02*
X4945D01*
X4940D01*
Y4165D01*
X4935Y4160D01*
X4975Y4135D02*
Y4165D01*
X4960Y4150D01*
X4980D01*
X5305Y4161D02*
X5300Y4166D01*
X5290D01*
X5285Y4161D01*
Y4141D01*
X5290Y4136D01*
X5300D01*
X5305Y4141D01*
X5315Y4136D02*
X5325D01*
X5320D01*
Y4166D01*
X5315Y4161D01*
X5360Y4166D02*
X5340D01*
Y4151D01*
X5350Y4156D01*
X5355D01*
X5360Y4151D01*
Y4141D01*
X5355Y4136D01*
X5345D01*
X5340Y4141D01*
X2650Y3850D02*
X2645Y3855D01*
X2635D01*
X2630Y3850D01*
Y3830D01*
X2635Y3825D01*
X2645D01*
X2650Y3830D01*
X2660Y3825D02*
X2670D01*
X2665D01*
Y3855D01*
X2660Y3850D01*
X2685Y3855D02*
X2705D01*
Y3850D01*
X2685Y3830D01*
Y3825D01*
X3055Y3855D02*
X3050Y3860D01*
X3040D01*
X3035Y3855D01*
Y3835D01*
X3040Y3830D01*
X3050D01*
X3055Y3835D01*
X3065Y3830D02*
X3075D01*
X3070D01*
Y3860D01*
X3065Y3855D01*
X3090D02*
X3095Y3860D01*
X3105D01*
X3110Y3855D01*
Y3850D01*
X3105Y3845D01*
X3110Y3840D01*
Y3835D01*
X3105Y3830D01*
X3095D01*
X3090Y3835D01*
Y3840D01*
X3095Y3845D01*
X3090Y3850D01*
Y3855D01*
X3095Y3845D02*
X3105D01*
X3460Y3855D02*
X3455Y3860D01*
X3445D01*
X3440Y3855D01*
Y3835D01*
X3445Y3830D01*
X3455D01*
X3460Y3835D01*
X3470Y3830D02*
X3480D01*
X3475D01*
Y3860D01*
X3470Y3855D01*
X3495Y3835D02*
X3500Y3830D01*
X3510D01*
X3515Y3835D01*
Y3855D01*
X3510Y3860D01*
X3500D01*
X3495Y3855D01*
Y3850D01*
X3500Y3845D01*
X3515D01*
X3850Y3855D02*
X3845Y3860D01*
X3835D01*
X3830Y3855D01*
Y3835D01*
X3835Y3830D01*
X3845D01*
X3850Y3835D01*
X3880Y3830D02*
X3860D01*
X3880Y3850D01*
Y3855D01*
X3875Y3860D01*
X3865D01*
X3860Y3855D01*
X3890D02*
X3895Y3860D01*
X3905D01*
X3910Y3855D01*
Y3835D01*
X3905Y3830D01*
X3895D01*
X3890Y3835D01*
Y3855D01*
X4240D02*
X4235Y3860D01*
X4225D01*
X4220Y3855D01*
Y3835D01*
X4225Y3830D01*
X4235D01*
X4240Y3835D01*
X4270Y3830D02*
X4250D01*
X4270Y3850D01*
Y3855D01*
X4265Y3860D01*
X4255D01*
X4250Y3855D01*
X4280Y3830D02*
X4290D01*
X4285D01*
Y3860D01*
X4280Y3855D01*
X4625D02*
X4620Y3860D01*
X4610D01*
X4605Y3855D01*
Y3835D01*
X4610Y3830D01*
X4620D01*
X4625Y3835D01*
X4655Y3830D02*
X4635D01*
X4655Y3850D01*
Y3855D01*
X4650Y3860D01*
X4640D01*
X4635Y3855D01*
X4685Y3830D02*
X4665D01*
X4685Y3850D01*
Y3855D01*
X4680Y3860D01*
X4670D01*
X4665Y3855D01*
X5035Y3861D02*
X5030Y3866D01*
X5020D01*
X5015Y3861D01*
Y3841D01*
X5020Y3836D01*
X5030D01*
X5035Y3841D01*
X5065Y3836D02*
X5045D01*
X5065Y3856D01*
Y3861D01*
X5060Y3866D01*
X5050D01*
X5045Y3861D01*
X5075D02*
X5080Y3866D01*
X5090D01*
X5095Y3861D01*
Y3856D01*
X5090Y3851D01*
X5085D01*
X5090D01*
X5095Y3846D01*
Y3841D01*
X5090Y3836D01*
X5080D01*
X5075Y3841D01*
X2950Y3855D02*
X2945Y3860D01*
X2935D01*
X2930Y3855D01*
Y3835D01*
X2935Y3830D01*
X2945D01*
X2950Y3835D01*
X2980Y3830D02*
X2960D01*
X2980Y3850D01*
Y3855D01*
X2975Y3860D01*
X2965D01*
X2960Y3855D01*
X3010Y3860D02*
X2990D01*
Y3845D01*
X3000Y3850D01*
X3005D01*
X3010Y3845D01*
Y3835D01*
X3005Y3830D01*
X2995D01*
X2990Y3835D01*
X3365Y3855D02*
X3360Y3860D01*
X3350D01*
X3345Y3855D01*
Y3835D01*
X3350Y3830D01*
X3360D01*
X3365Y3835D01*
X3395Y3830D02*
X3375D01*
X3395Y3850D01*
Y3855D01*
X3390Y3860D01*
X3380D01*
X3375Y3855D01*
X3425Y3860D02*
X3415Y3855D01*
X3405Y3845D01*
Y3835D01*
X3410Y3830D01*
X3420D01*
X3425Y3835D01*
Y3840D01*
X3420Y3845D01*
X3405D01*
X3745Y3855D02*
X3740Y3860D01*
X3730D01*
X3725Y3855D01*
Y3835D01*
X3730Y3830D01*
X3740D01*
X3745Y3835D01*
X3775Y3830D02*
X3755D01*
X3775Y3850D01*
Y3855D01*
X3770Y3860D01*
X3760D01*
X3755Y3855D01*
X3785Y3860D02*
X3805D01*
Y3855D01*
X3785Y3835D01*
Y3830D01*
X4135Y3855D02*
X4130Y3860D01*
X4120D01*
X4115Y3855D01*
Y3835D01*
X4120Y3830D01*
X4130D01*
X4135Y3835D01*
X4165Y3830D02*
X4145D01*
X4165Y3850D01*
Y3855D01*
X4160Y3860D01*
X4150D01*
X4145Y3855D01*
X4175D02*
X4180Y3860D01*
X4190D01*
X4195Y3855D01*
Y3850D01*
X4190Y3845D01*
X4195Y3840D01*
Y3835D01*
X4190Y3830D01*
X4180D01*
X4175Y3835D01*
Y3840D01*
X4180Y3845D01*
X4175Y3850D01*
Y3855D01*
X4180Y3845D02*
X4190D01*
X4520Y3855D02*
X4515Y3860D01*
X4505D01*
X4500Y3855D01*
Y3835D01*
X4505Y3830D01*
X4515D01*
X4520Y3835D01*
X4550Y3830D02*
X4530D01*
X4550Y3850D01*
Y3855D01*
X4545Y3860D01*
X4535D01*
X4530Y3855D01*
X4560Y3835D02*
X4565Y3830D01*
X4575D01*
X4580Y3835D01*
Y3855D01*
X4575Y3860D01*
X4565D01*
X4560Y3855D01*
Y3850D01*
X4565Y3845D01*
X4580D01*
X4920Y3860D02*
X4915Y3865D01*
X4905D01*
X4900Y3860D01*
Y3840D01*
X4905Y3835D01*
X4915D01*
X4920Y3840D01*
X4930Y3860D02*
X4935Y3865D01*
X4945D01*
X4950Y3860D01*
Y3855D01*
X4945Y3850D01*
X4940D01*
X4945D01*
X4950Y3845D01*
Y3840D01*
X4945Y3835D01*
X4935D01*
X4930Y3840D01*
X4960Y3860D02*
X4965Y3865D01*
X4975D01*
X4980Y3860D01*
Y3840D01*
X4975Y3835D01*
X4965D01*
X4960Y3840D01*
Y3860D01*
X5305Y3851D02*
X5300Y3856D01*
X5290D01*
X5285Y3851D01*
Y3831D01*
X5290Y3826D01*
X5300D01*
X5305Y3831D01*
X5315Y3851D02*
X5320Y3856D01*
X5330D01*
X5335Y3851D01*
Y3846D01*
X5330Y3841D01*
X5325D01*
X5330D01*
X5335Y3836D01*
Y3831D01*
X5330Y3826D01*
X5320D01*
X5315Y3831D01*
X5345Y3826D02*
X5355D01*
X5350D01*
Y3856D01*
X5345Y3851D01*
X1885Y3890D02*
X1880Y3895D01*
X1870D01*
X1865Y3890D01*
Y3870D01*
X1870Y3865D01*
X1880D01*
X1885Y3870D01*
X1895Y3890D02*
X1900Y3895D01*
X1910D01*
X1915Y3890D01*
Y3885D01*
X1910Y3880D01*
X1905D01*
X1910D01*
X1915Y3875D01*
Y3870D01*
X1910Y3865D01*
X1900D01*
X1895Y3870D01*
X1940Y3865D02*
Y3895D01*
X1925Y3880D01*
X1945D01*
X2783Y4165D02*
X2793D01*
X2788D01*
Y4135D01*
X2783D01*
X2793D01*
X2808D02*
Y4165D01*
X2823D01*
X2828Y4160D01*
Y4150D01*
X2823Y4145D01*
X2808D01*
X2818D02*
X2828Y4135D01*
X2838Y4160D02*
X2843Y4165D01*
X2853D01*
X2858Y4160D01*
Y4140D01*
X2853Y4135D01*
X2843D01*
X2838Y4140D01*
Y4160D01*
X3186Y4166D02*
X3196D01*
X3191D01*
Y4136D01*
X3186D01*
X3196D01*
X3211D02*
Y4166D01*
X3226D01*
X3231Y4161D01*
Y4151D01*
X3226Y4146D01*
X3211D01*
X3221D02*
X3231Y4136D01*
X3241D02*
X3251D01*
X3246D01*
Y4166D01*
X3241Y4161D01*
X3579Y4166D02*
X3589D01*
X3584D01*
Y4136D01*
X3579D01*
X3589D01*
X3604D02*
Y4166D01*
X3619D01*
X3624Y4161D01*
Y4151D01*
X3619Y4146D01*
X3604D01*
X3614D02*
X3624Y4136D01*
X3654D02*
X3634D01*
X3654Y4156D01*
Y4161D01*
X3649Y4166D01*
X3639D01*
X3634Y4161D01*
X4359Y4166D02*
X4369D01*
X4364D01*
Y4136D01*
X4359D01*
X4369D01*
X4384D02*
Y4166D01*
X4399D01*
X4404Y4161D01*
Y4151D01*
X4399Y4146D01*
X4384D01*
X4394D02*
X4404Y4136D01*
X4429D02*
Y4166D01*
X4414Y4151D01*
X4434D01*
X4757Y4166D02*
X4767D01*
X4762D01*
Y4136D01*
X4757D01*
X4767D01*
X4782D02*
Y4166D01*
X4797D01*
X4802Y4161D01*
Y4151D01*
X4797Y4146D01*
X4782D01*
X4792D02*
X4802Y4136D01*
X4832Y4166D02*
X4812D01*
Y4151D01*
X4822Y4156D01*
X4827D01*
X4832Y4151D01*
Y4141D01*
X4827Y4136D01*
X4817D01*
X4812Y4141D01*
X5155Y4166D02*
X5165D01*
X5160D01*
Y4136D01*
X5155D01*
X5165D01*
X5180D02*
Y4166D01*
X5195D01*
X5200Y4161D01*
Y4151D01*
X5195Y4146D01*
X5180D01*
X5190D02*
X5200Y4136D01*
X5230Y4166D02*
X5220Y4161D01*
X5210Y4151D01*
Y4141D01*
X5215Y4136D01*
X5225D01*
X5230Y4141D01*
Y4146D01*
X5225Y4151D01*
X5210D01*
X1935Y4040D02*
Y4070D01*
X1950D01*
X1955Y4065D01*
Y4055D01*
X1950Y4050D01*
X1935D01*
X1945D02*
X1955Y4040D01*
X1965D02*
X1975D01*
X1970D01*
Y4070D01*
X1965Y4065D01*
X1990Y4070D02*
X2010D01*
Y4065D01*
X1990Y4045D01*
Y4040D01*
X1805Y3945D02*
Y3975D01*
X1820D01*
X1825Y3970D01*
Y3960D01*
X1820Y3955D01*
X1805D01*
X1815D02*
X1825Y3945D01*
X1835D02*
X1845D01*
X1840D01*
Y3975D01*
X1835Y3970D01*
X1860D02*
X1865Y3975D01*
X1875D01*
X1880Y3970D01*
Y3965D01*
X1875Y3960D01*
X1880Y3955D01*
Y3950D01*
X1875Y3945D01*
X1865D01*
X1860Y3950D01*
Y3955D01*
X1865Y3960D01*
X1860Y3965D01*
Y3970D01*
X1865Y3960D02*
X1875D01*
X2115Y4290D02*
X2095Y4255D01*
X2118Y4242D01*
X2149Y4255D02*
X2160Y4249D01*
X2163Y4240D01*
X2153Y4222D01*
X2136Y4232D01*
X2133Y4241D01*
X2142Y4244D01*
X2160Y4234D01*
X2184Y4251D02*
X2165Y4216D01*
X2182Y4206D01*
X2191Y4209D01*
X2194Y4214D01*
X2198Y4220D01*
X2195Y4229D01*
X2178Y4239D01*
X2140Y4326D02*
X2137Y4335D01*
X2125Y4342D01*
X2116Y4339D01*
X2103Y4316D01*
X2106Y4307D01*
X2117Y4300D01*
X2127Y4303D01*
X2141Y4287D02*
X2152Y4281D01*
X2161Y4283D01*
X2168Y4295D01*
X2165Y4304D01*
X2154Y4310D01*
X2145Y4308D01*
X2138Y4296D01*
X2141Y4287D01*
X2183Y4294D02*
X2170Y4271D01*
X2176Y4282D01*
X2185Y4285D01*
X2194Y4287D01*
X2200Y4284D01*
X2218Y4274D02*
X2205Y4251D01*
X2211Y4263D01*
X2220Y4265D01*
X2229Y4268D01*
X2235Y4265D01*
X2257Y4222D02*
X2245Y4228D01*
X2243Y4237D01*
X2249Y4249D01*
X2258Y4252D01*
X2270Y4245D01*
X2272Y4236D01*
X2269Y4230D01*
X2246Y4243D01*
X2274Y4212D02*
X2286Y4205D01*
X2280Y4209D01*
X2300Y4244D01*
X2294Y4247D01*
X2303Y4196D02*
X2315Y4189D01*
X2309Y4192D01*
X2329Y4227D01*
X2323Y4230D01*
X1290Y3855D02*
X1270D01*
Y3840D01*
X1280Y3845D01*
X1285D01*
X1290Y3840D01*
Y3830D01*
X1285Y3825D01*
X1275D01*
X1270Y3830D01*
X1300Y3855D02*
Y3835D01*
X1310Y3825D01*
X1320Y3835D01*
Y3855D01*
X1675Y3850D02*
X1670Y3855D01*
X1660D01*
X1655Y3850D01*
Y3830D01*
X1660Y3825D01*
X1670D01*
X1675Y3830D01*
Y3840D01*
X1665D01*
X1685Y3825D02*
Y3855D01*
X1705Y3825D01*
Y3855D01*
X1715D02*
Y3825D01*
X1730D01*
X1735Y3830D01*
Y3850D01*
X1730Y3855D01*
X1715D01*
X1355D02*
Y3835D01*
X1365Y3825D01*
X1375Y3835D01*
Y3855D01*
X1405Y3850D02*
X1400Y3855D01*
X1390D01*
X1385Y3850D01*
Y3830D01*
X1390Y3825D01*
X1400D01*
X1405Y3830D01*
X1435Y3850D02*
X1430Y3855D01*
X1420D01*
X1415Y3850D01*
Y3830D01*
X1420Y3825D01*
X1430D01*
X1435Y3830D01*
X1480Y3850D02*
X1475Y3855D01*
X1465D01*
X1460Y3850D01*
Y3845D01*
X1465Y3840D01*
X1475D01*
X1480Y3835D01*
Y3830D01*
X1475Y3825D01*
X1465D01*
X1460Y3830D01*
X1510Y3850D02*
X1505Y3855D01*
X1495D01*
X1490Y3850D01*
Y3830D01*
X1495Y3825D01*
X1505D01*
X1510Y3830D01*
X1520Y3855D02*
Y3825D01*
X1540D01*
X1575Y3850D02*
X1570Y3855D01*
X1560D01*
X1555Y3850D01*
Y3845D01*
X1560Y3840D01*
X1570D01*
X1575Y3835D01*
Y3830D01*
X1570Y3825D01*
X1560D01*
X1555Y3830D01*
X1585Y3855D02*
Y3825D01*
X1600D01*
X1605Y3830D01*
Y3850D01*
X1600Y3855D01*
X1585D01*
X1615Y3825D02*
Y3845D01*
X1625Y3855D01*
X1635Y3845D01*
Y3825D01*
Y3840D01*
X1615D01*
X5460Y4200D02*
G03*
X5360Y4200I-50J0D01*
G01*
X5600Y4060D02*
G03*
X5460Y4200I-140J0D01*
G01*
X5360Y3800D02*
G03*
X5460Y3800I50J0D01*
G01*
D02*
G03*
X5600Y3940I0J140D01*
G01*
X1900Y4000D02*
Y4425D01*
X2430Y4200D02*
X5360D01*
X5480Y4060D02*
X5600D01*
X1225Y4000D02*
X1900D01*
X2030Y4425D02*
X2430Y4200D01*
X5480Y3940D02*
X5600D01*
X1225Y3800D02*
Y4000D01*
X1900Y4425D02*
X2030D01*
X5480Y3940D02*
Y4060D01*
X1225Y3800D02*
X5360D01*
D26*
X3520Y3925D02*
G03*
X3520Y3925I-5J0D01*
G01*
X5095D02*
G03*
X5095Y3925I-5J0D01*
G01*
X4701D02*
G03*
X4701Y3925I-5J0D01*
G01*
X4308D02*
G03*
X4308Y3925I-5J0D01*
G01*
X3126D02*
G03*
X3126Y3925I-5J0D01*
G01*
X2733Y3924D02*
G03*
X2733Y3924I-5J0D01*
G01*
X3914Y3925D02*
G03*
X3914Y3925I-5J0D01*
G01*
D27*
X2220Y3904D02*
G03*
X2220Y3904I-12J0D01*
G01*
D28*
X2296Y3849D02*
G03*
X2296Y3849I-5J0D01*
G01*
D29*
X2417Y3914D02*
X2433D01*
X2417Y3886D02*
X2433D01*
X1957Y3996D02*
X1973D01*
X1957Y4024D02*
X1973D01*
X1928Y3946D02*
X1943D01*
X1928Y3974D02*
X1943D01*
X2102Y4176D02*
X2248D01*
X2102Y3864D02*
X2248D01*
X2102D02*
Y4176D01*
X2248Y3864D02*
Y4176D01*
X1745Y3865D02*
Y3965D01*
X1245Y3865D02*
X1745D01*
X1245Y3965D02*
X1745D01*
X1245Y3865D02*
Y3965D01*
M02*
