%FSLAX23Y23*%
%MOIN*%
G70*
G01*
G75*
G04 Layer_Color=8421504*
%ADD10R,0.028X0.035*%
%ADD11R,0.063X0.016*%
%ADD12R,0.014X0.063*%
%ADD13O,0.055X0.018*%
%ADD14R,0.035X0.031*%
%ADD15C,0.015*%
%ADD16C,0.020*%
%ADD17C,0.007*%
%ADD18C,0.005*%
%ADD19C,0.059*%
%ADD20C,0.100*%
%ADD21R,0.059X0.059*%
%ADD22C,0.029*%
%ADD23R,0.039X0.020*%
%ADD24R,0.020X0.039*%
%ADD25R,0.035X0.028*%
%ADD26C,0.010*%
%ADD27C,0.024*%
%ADD28C,0.010*%
%ADD29C,0.008*%
D10*
X2395Y3900D02*
D03*
X2455D02*
D03*
X1995Y4010D02*
D03*
X1935D02*
D03*
X1965Y3960D02*
D03*
X1906D02*
D03*
D11*
X3530Y3993D02*
D03*
X3701Y3969D02*
D03*
Y4000D02*
D03*
X5276D02*
D03*
Y3969D02*
D03*
X5104Y3993D02*
D03*
X4711D02*
D03*
X4882Y3969D02*
D03*
Y4000D02*
D03*
X4488D02*
D03*
Y3969D02*
D03*
X4317Y3993D02*
D03*
X3307Y4000D02*
D03*
Y3969D02*
D03*
X3136Y3993D02*
D03*
X2742Y3993D02*
D03*
X2913Y3968D02*
D03*
Y3999D02*
D03*
X4094Y4000D02*
D03*
Y3969D02*
D03*
X3923Y3993D02*
D03*
D12*
X3556Y3914D02*
D03*
X3586D02*
D03*
X3615D02*
D03*
X3645D02*
D03*
X3674D02*
D03*
X3556Y4086D02*
D03*
X3586D02*
D03*
X3615D02*
D03*
X3645D02*
D03*
X3674D02*
D03*
X5249D02*
D03*
X5220D02*
D03*
X5190D02*
D03*
X5160D02*
D03*
X5131D02*
D03*
X5249Y3914D02*
D03*
X5220D02*
D03*
X5190D02*
D03*
X5160D02*
D03*
X5131D02*
D03*
X4737D02*
D03*
X4767D02*
D03*
X4796D02*
D03*
X4826D02*
D03*
X4855D02*
D03*
X4737Y4086D02*
D03*
X4767D02*
D03*
X4796D02*
D03*
X4826D02*
D03*
X4855D02*
D03*
X4462D02*
D03*
X4432D02*
D03*
X4403D02*
D03*
X4373D02*
D03*
X4344D02*
D03*
X4462Y3914D02*
D03*
X4432D02*
D03*
X4403D02*
D03*
X4373D02*
D03*
X4344D02*
D03*
X3281Y4086D02*
D03*
X3251D02*
D03*
X3221D02*
D03*
X3192D02*
D03*
X3162D02*
D03*
X3281Y3914D02*
D03*
X3251D02*
D03*
X3221D02*
D03*
X3192D02*
D03*
X3162D02*
D03*
X2769Y3914D02*
D03*
X2798D02*
D03*
X2828D02*
D03*
X2857D02*
D03*
X2887D02*
D03*
X2769Y4085D02*
D03*
X2798D02*
D03*
X2828D02*
D03*
X2857D02*
D03*
X2887D02*
D03*
X4068Y4086D02*
D03*
X4038D02*
D03*
X4009D02*
D03*
X3979D02*
D03*
X3950D02*
D03*
X4068Y3914D02*
D03*
X4038D02*
D03*
X4009D02*
D03*
X3979D02*
D03*
X3950D02*
D03*
D13*
X2059Y4161D02*
D03*
Y4135D02*
D03*
Y4110D02*
D03*
Y4084D02*
D03*
Y4058D02*
D03*
Y4033D02*
D03*
Y4007D02*
D03*
Y3982D02*
D03*
Y3956D02*
D03*
Y3930D02*
D03*
Y3905D02*
D03*
Y3879D02*
D03*
X2291Y4161D02*
D03*
Y4135D02*
D03*
Y4110D02*
D03*
Y4084D02*
D03*
Y4058D02*
D03*
Y4033D02*
D03*
Y4007D02*
D03*
Y3982D02*
D03*
Y3956D02*
D03*
Y3930D02*
D03*
Y3905D02*
D03*
Y3879D02*
D03*
D14*
X2665Y4108D02*
D03*
Y4052D02*
D03*
X3055Y4102D02*
D03*
Y4047D02*
D03*
X3461Y4102D02*
D03*
Y4047D02*
D03*
X3847Y4102D02*
D03*
Y4047D02*
D03*
X4238Y4102D02*
D03*
Y4047D02*
D03*
X4619Y4102D02*
D03*
Y4047D02*
D03*
X5040Y4102D02*
D03*
Y4047D02*
D03*
X2989Y4102D02*
D03*
Y4047D02*
D03*
X3405Y4102D02*
D03*
Y4047D02*
D03*
X3781Y4102D02*
D03*
Y4047D02*
D03*
X4177Y4102D02*
D03*
Y4047D02*
D03*
X4560Y4103D02*
D03*
Y4047D02*
D03*
X4955Y4103D02*
D03*
Y4047D02*
D03*
X5340Y4103D02*
D03*
Y4047D02*
D03*
X2665Y3892D02*
D03*
Y3948D02*
D03*
X3055Y3892D02*
D03*
Y3947D02*
D03*
X3461Y3892D02*
D03*
Y3947D02*
D03*
X3847Y3892D02*
D03*
Y3947D02*
D03*
X4238Y3892D02*
D03*
Y3947D02*
D03*
X4619Y3892D02*
D03*
Y3947D02*
D03*
X5035Y3892D02*
D03*
Y3948D02*
D03*
X2989Y3892D02*
D03*
Y3947D02*
D03*
X3405Y3892D02*
D03*
Y3947D02*
D03*
X3781Y3892D02*
D03*
Y3947D02*
D03*
X4177Y3892D02*
D03*
Y3947D02*
D03*
X4560Y3892D02*
D03*
Y3948D02*
D03*
X4950Y3892D02*
D03*
Y3948D02*
D03*
X5340Y3892D02*
D03*
Y3948D02*
D03*
X1980Y3908D02*
D03*
Y3852D02*
D03*
D18*
X5460Y4200D02*
G03*
X5360Y4200I-50J0D01*
G01*
X5600Y4060D02*
G03*
X5460Y4200I-140J0D01*
G01*
X5360Y3800D02*
G03*
X5460Y3800I50J0D01*
G01*
D02*
G03*
X5600Y3940I0J140D01*
G01*
X1900Y4000D02*
Y4425D01*
X2430Y4200D02*
X5360D01*
X5480Y4060D02*
X5600D01*
X1225Y4000D02*
X1900D01*
X2030Y4425D02*
X2430Y4200D01*
X5480Y3940D02*
X5600D01*
X1225Y3800D02*
Y4000D01*
X1900Y4425D02*
X2030D01*
X5480Y3940D02*
Y4060D01*
X1225Y3800D02*
X5360D01*
M02*
