%FSLAX23Y23*%
%MOIN*%
G70*
G01*
G75*
G04 Layer_Color=32896*
%ADD10R,0.028X0.035*%
%ADD11R,0.063X0.016*%
%ADD12R,0.014X0.063*%
%ADD13O,0.055X0.018*%
%ADD14R,0.035X0.031*%
%ADD15C,0.015*%
%ADD16C,0.020*%
%ADD17C,0.007*%
%ADD18C,0.005*%
%ADD19C,0.059*%
%ADD20C,0.100*%
%ADD21R,0.059X0.059*%
%ADD22C,0.029*%
%ADD23R,0.039X0.020*%
%ADD24R,0.020X0.039*%
%ADD25R,0.035X0.028*%
%ADD26C,0.010*%
%ADD27C,0.024*%
%ADD28C,0.010*%
%ADD29C,0.008*%
%ADD30R,0.030X0.037*%
%ADD31R,0.065X0.018*%
%ADD32R,0.016X0.065*%
%ADD33O,0.057X0.020*%
%ADD34R,0.037X0.033*%
%ADD35C,0.061*%
%ADD36C,0.102*%
%ADD37R,0.061X0.061*%
%ADD38R,0.041X0.022*%
%ADD39R,0.022X0.041*%
%ADD40R,0.037X0.030*%
D18*
X5530Y3840D02*
Y3870D01*
X5515D01*
X5510Y3865D01*
Y3855D01*
X5515Y3850D01*
X5530D01*
X5520D02*
X5510Y3840D01*
X5500D02*
X5490D01*
X5495D01*
Y3870D01*
X5500Y3865D01*
X5455Y3870D02*
X5465Y3865D01*
X5475Y3855D01*
Y3845D01*
X5470Y3840D01*
X5460D01*
X5455Y3845D01*
Y3850D01*
X5460Y3855D01*
X5475D01*
X5530Y4130D02*
Y4160D01*
X5515D01*
X5510Y4155D01*
Y4145D01*
X5515Y4140D01*
X5530D01*
X5520D02*
X5510Y4130D01*
X5500D02*
X5490D01*
X5495D01*
Y4160D01*
X5500Y4155D01*
X5455Y4160D02*
X5475D01*
Y4145D01*
X5465Y4150D01*
X5460D01*
X5455Y4145D01*
Y4135D01*
X5460Y4130D01*
X5470D01*
X5475Y4135D01*
X3515Y3985D02*
Y4015D01*
X3500D01*
X3495Y4010D01*
Y4000D01*
X3500Y3995D01*
X3515D01*
X3505D02*
X3495Y3985D01*
X3465Y4015D02*
X3485D01*
Y4000D01*
X3475Y4005D01*
X3470D01*
X3465Y4000D01*
Y3990D01*
X3470Y3985D01*
X3480D01*
X3485Y3990D01*
X2220Y4150D02*
X2225Y4145D01*
X2235D01*
X2240Y4150D01*
Y4170D01*
X2235Y4175D01*
X2225D01*
X2220Y4170D01*
X2210Y4150D02*
X2205Y4145D01*
X2195D01*
X2190Y4150D01*
Y4155D01*
X2195Y4160D01*
X2200D01*
X2195D01*
X2190Y4165D01*
Y4170D01*
X2195Y4175D01*
X2205D01*
X2210Y4170D01*
X2180Y4150D02*
X2175Y4145D01*
X2165D01*
X2160Y4150D01*
Y4155D01*
X2165Y4160D01*
X2170D01*
X2165D01*
X2160Y4165D01*
Y4170D01*
X2165Y4175D01*
X2175D01*
X2180Y4170D01*
X2685Y3980D02*
Y4010D01*
X2670D01*
X2665Y4005D01*
Y3995D01*
X2670Y3990D01*
X2685D01*
X2675D02*
X2665Y3980D01*
X2655D02*
X2645D01*
X2650D01*
Y4010D01*
X2655Y4005D01*
X3016Y3961D02*
Y3991D01*
X3001D01*
X2996Y3986D01*
Y3976D01*
X3001Y3971D01*
X3016D01*
X3006D02*
X2996Y3961D01*
X2966D02*
X2986D01*
X2966Y3981D01*
Y3986D01*
X2971Y3991D01*
X2981D01*
X2986Y3986D01*
X3125Y3960D02*
Y3990D01*
X3110D01*
X3105Y3985D01*
Y3975D01*
X3110Y3970D01*
X3125D01*
X3115D02*
X3105Y3960D01*
X3095Y3985D02*
X3090Y3990D01*
X3080D01*
X3075Y3985D01*
Y3980D01*
X3080Y3975D01*
X3085D01*
X3080D01*
X3075Y3970D01*
Y3965D01*
X3080Y3960D01*
X3090D01*
X3095Y3965D01*
X3380Y3985D02*
Y4015D01*
X3365D01*
X3360Y4010D01*
Y4000D01*
X3365Y3995D01*
X3380D01*
X3370D02*
X3360Y3985D01*
X3335D02*
Y4015D01*
X3350Y4000D01*
X3330D01*
X3736Y3986D02*
Y4016D01*
X3721D01*
X3716Y4011D01*
Y4001D01*
X3721Y3996D01*
X3736D01*
X3726D02*
X3716Y3986D01*
X3686Y4016D02*
X3696Y4011D01*
X3706Y4001D01*
Y3991D01*
X3701Y3986D01*
X3691D01*
X3686Y3991D01*
Y3996D01*
X3691Y4001D01*
X3706D01*
X3850Y3985D02*
Y4015D01*
X3835D01*
X3830Y4010D01*
Y4000D01*
X3835Y3995D01*
X3850D01*
X3840D02*
X3830Y3985D01*
X3820Y4015D02*
X3800D01*
Y4010D01*
X3820Y3990D01*
Y3985D01*
X4175Y3970D02*
Y4000D01*
X4160D01*
X4155Y3995D01*
Y3985D01*
X4160Y3980D01*
X4175D01*
X4165D02*
X4155Y3970D01*
X4145Y3995D02*
X4140Y4000D01*
X4130D01*
X4125Y3995D01*
Y3990D01*
X4130Y3985D01*
X4125Y3980D01*
Y3975D01*
X4130Y3970D01*
X4140D01*
X4145Y3975D01*
Y3980D01*
X4140Y3985D01*
X4145Y3990D01*
Y3995D01*
X4140Y3985D02*
X4130D01*
X4305Y3970D02*
Y4000D01*
X4290D01*
X4285Y3995D01*
Y3985D01*
X4290Y3980D01*
X4305D01*
X4295D02*
X4285Y3970D01*
X4275Y3975D02*
X4270Y3970D01*
X4260D01*
X4255Y3975D01*
Y3995D01*
X4260Y4000D01*
X4270D01*
X4275Y3995D01*
Y3990D01*
X4270Y3985D01*
X4255D01*
X4565Y3980D02*
Y4010D01*
X4550D01*
X4545Y4005D01*
Y3995D01*
X4550Y3990D01*
X4565D01*
X4555D02*
X4545Y3980D01*
X4535D02*
X4525D01*
X4530D01*
Y4010D01*
X4535Y4005D01*
X4510D02*
X4505Y4010D01*
X4495D01*
X4490Y4005D01*
Y3985D01*
X4495Y3980D01*
X4505D01*
X4510Y3985D01*
Y4005D01*
X4680Y3965D02*
Y3995D01*
X4665D01*
X4660Y3990D01*
Y3980D01*
X4665Y3975D01*
X4680D01*
X4670D02*
X4660Y3965D01*
X4650D02*
X4640D01*
X4645D01*
Y3995D01*
X4650Y3990D01*
X4625Y3965D02*
X4615D01*
X4620D01*
Y3995D01*
X4625Y3990D01*
X4915Y3990D02*
Y4020D01*
X4900D01*
X4895Y4015D01*
Y4005D01*
X4900Y4000D01*
X4915D01*
X4905D02*
X4895Y3990D01*
X4885D02*
X4875D01*
X4880D01*
Y4020D01*
X4885Y4015D01*
X4840Y3990D02*
X4860D01*
X4840Y4010D01*
Y4015D01*
X4845Y4020D01*
X4855D01*
X4860Y4015D01*
X5160Y3960D02*
Y3990D01*
X5145D01*
X5140Y3985D01*
Y3975D01*
X5145Y3970D01*
X5160D01*
X5150D02*
X5140Y3960D01*
X5130D02*
X5120D01*
X5125D01*
Y3990D01*
X5130Y3985D01*
X5105D02*
X5100Y3990D01*
X5090D01*
X5085Y3985D01*
Y3980D01*
X5090Y3975D01*
X5095D01*
X5090D01*
X5085Y3970D01*
Y3965D01*
X5090Y3960D01*
X5100D01*
X5105Y3965D01*
X5355Y3955D02*
Y3985D01*
X5340D01*
X5335Y3980D01*
Y3970D01*
X5340Y3965D01*
X5355D01*
X5345D02*
X5335Y3955D01*
X5325D02*
X5315D01*
X5320D01*
Y3985D01*
X5325Y3980D01*
X5285Y3955D02*
Y3985D01*
X5300Y3970D01*
X5280D01*
X2278Y3980D02*
X2287D01*
X2283D01*
Y3959D01*
X2287Y3955D01*
X2291D01*
X2295Y3959D01*
X2270Y3976D02*
X2266Y3980D01*
X2258D01*
X2253Y3976D01*
Y3959D01*
X2258Y3955D01*
X2266D01*
X2270Y3959D01*
Y3976D01*
X2213Y3980D02*
X2222D01*
X2218D01*
Y3959D01*
X2222Y3955D01*
X2226D01*
X2230Y3959D01*
X2205Y3955D02*
X2197D01*
X2201D01*
Y3980D01*
X2205Y3976D01*
X2158Y3850D02*
X2167D01*
X2163D01*
Y3829D01*
X2167Y3825D01*
X2171D01*
X2175Y3829D01*
X2133Y3825D02*
X2150D01*
X2133Y3842D01*
Y3846D01*
X2138Y3850D01*
X2146D01*
X2150Y3846D01*
X2163Y4010D02*
X2172D01*
X2168D01*
Y3989D01*
X2172Y3985D01*
X2176D01*
X2180Y3989D01*
X2155Y4006D02*
X2151Y4010D01*
X2143D01*
X2138Y4006D01*
Y4002D01*
X2143Y3997D01*
X2147D01*
X2143D01*
X2138Y3993D01*
Y3989D01*
X2143Y3985D01*
X2151D01*
X2155Y3989D01*
X2068Y3850D02*
X2077D01*
X2073D01*
Y3829D01*
X2077Y3825D01*
X2081D01*
X2085Y3829D01*
X2048Y3825D02*
Y3850D01*
X2060Y3837D01*
X2043D01*
X2068Y4010D02*
X2077D01*
X2073D01*
Y3989D01*
X2077Y3985D01*
X2081D01*
X2085Y3989D01*
X2043Y4010D02*
X2060D01*
Y3997D01*
X2052Y4002D01*
X2048D01*
X2043Y3997D01*
Y3989D01*
X2048Y3985D01*
X2056D01*
X2060Y3989D01*
X2205Y4240D02*
X2185Y4205D01*
X2162Y4218D01*
X2157Y4251D02*
X2146Y4258D01*
X2137Y4255D01*
X2127Y4238D01*
X2144Y4228D01*
X2153Y4230D01*
X2151Y4239D01*
X2133Y4249D01*
X2135Y4279D02*
X2115Y4244D01*
X2098Y4254D01*
X2095Y4263D01*
X2099Y4269D01*
X2102Y4275D01*
X2111Y4277D01*
X2128Y4267D01*
X2303Y4237D02*
X2312Y4240D01*
X2324Y4233D01*
X2326Y4224D01*
X2313Y4201D01*
X2304Y4198D01*
X2293Y4205D01*
X2290Y4214D01*
X2269Y4218D02*
X2258Y4224D01*
X2255Y4233D01*
X2262Y4245D01*
X2271Y4248D01*
X2282Y4241D01*
X2285Y4232D01*
X2278Y4220D01*
X2269Y4218D01*
X2253Y4257D02*
X2240Y4234D01*
X2247Y4246D01*
X2244Y4255D01*
X2242Y4264D01*
X2236Y4267D01*
X2219Y4277D02*
X2205Y4254D01*
X2212Y4265D01*
X2209Y4274D01*
X2207Y4283D01*
X2201Y4287D01*
X2153Y4283D02*
X2165Y4277D01*
X2174Y4279D01*
X2180Y4291D01*
X2178Y4300D01*
X2166Y4306D01*
X2157Y4304D01*
X2154Y4298D01*
X2177Y4285D01*
X2136Y4293D02*
X2124Y4299D01*
X2130Y4296D01*
X2150Y4331D01*
X2155Y4328D01*
X2107Y4309D02*
X2095Y4316D01*
X2101Y4313D01*
X2120Y4347D01*
X2126Y4344D01*
X5460Y4200D02*
G03*
X5360Y4200I-50J0D01*
G01*
X5600Y4060D02*
G03*
X5460Y4200I-140J0D01*
G01*
X5360Y3800D02*
G03*
X5460Y3800I50J0D01*
G01*
D02*
G03*
X5600Y3940I0J140D01*
G01*
X1900Y4000D02*
Y4425D01*
X2430Y4200D02*
X5360D01*
X5480Y4060D02*
X5600D01*
X1225Y4000D02*
X1900D01*
X2030Y4425D02*
X2430Y4200D01*
X5480Y3940D02*
X5600D01*
X1225Y3800D02*
Y4000D01*
X1900Y4425D02*
X2030D01*
X5480Y3940D02*
Y4060D01*
X1225Y3800D02*
X5360D01*
D29*
X5512Y3886D02*
X5528D01*
X5512Y3914D02*
X5528D01*
X5512Y4086D02*
X5528D01*
X5512Y4114D02*
X5528D01*
X3477Y3941D02*
X3493D01*
X3477Y3969D02*
X3493D01*
X3702Y3969D02*
X3718D01*
X3702Y3941D02*
X3718D01*
X3337Y3969D02*
X3353D01*
X3337Y3941D02*
X3353D01*
X3124Y3897D02*
Y3913D01*
X3096Y3897D02*
Y3913D01*
X4872Y3968D02*
X4887D01*
X4872Y3941D02*
X4887D01*
X4252Y3926D02*
X4268D01*
X4252Y3954D02*
X4268D01*
X2679Y3885D02*
Y3900D01*
X2651Y3885D02*
Y3900D01*
X3837Y3941D02*
X3853D01*
X3837Y3969D02*
X3853D01*
X4668Y3902D02*
Y3917D01*
X4641Y3902D02*
Y3917D01*
X4137Y3954D02*
X4152D01*
X4137Y3926D02*
X4152D01*
X5144Y3897D02*
Y3913D01*
X5116Y3897D02*
Y3913D01*
X5312Y3934D02*
X5328D01*
X5312Y3906D02*
X5328D01*
X4522Y3959D02*
X4538D01*
X4522Y3931D02*
X4538D01*
X2999Y3897D02*
Y3913D01*
X2971Y3897D02*
Y3913D01*
M02*
