%FSLAX23Y23*%
%MOIN*%
G70*
G01*
G75*
G04 Layer_Physical_Order=1*
G04 Layer_Color=255*
%ADD10R,0.028X0.035*%
%ADD11R,0.063X0.016*%
%ADD12R,0.014X0.063*%
%ADD13O,0.055X0.018*%
%ADD14R,0.035X0.031*%
%ADD15C,0.015*%
%ADD16C,0.020*%
%ADD17C,0.007*%
%ADD18C,0.005*%
%ADD19C,0.059*%
%ADD20C,0.100*%
%ADD21R,0.059X0.059*%
%ADD22C,0.029*%
D10*
X2395Y3900D02*
D03*
X2455D02*
D03*
X1995Y4010D02*
D03*
X1935D02*
D03*
X1965Y3960D02*
D03*
X1906D02*
D03*
D11*
X3530Y3993D02*
D03*
X3701Y3969D02*
D03*
Y4000D02*
D03*
X5276D02*
D03*
Y3969D02*
D03*
X5104Y3993D02*
D03*
X4711D02*
D03*
X4882Y3969D02*
D03*
Y4000D02*
D03*
X4488D02*
D03*
Y3969D02*
D03*
X4317Y3993D02*
D03*
X3307Y4000D02*
D03*
Y3969D02*
D03*
X3136Y3993D02*
D03*
X2742Y3993D02*
D03*
X2913Y3968D02*
D03*
Y3999D02*
D03*
X4094Y4000D02*
D03*
Y3969D02*
D03*
X3923Y3993D02*
D03*
D12*
X3556Y3914D02*
D03*
X3586D02*
D03*
X3615D02*
D03*
X3645D02*
D03*
X3674D02*
D03*
X3556Y4086D02*
D03*
X3586D02*
D03*
X3615D02*
D03*
X3645D02*
D03*
X3674D02*
D03*
X5249D02*
D03*
X5220D02*
D03*
X5190D02*
D03*
X5160D02*
D03*
X5131D02*
D03*
X5249Y3914D02*
D03*
X5220D02*
D03*
X5190D02*
D03*
X5160D02*
D03*
X5131D02*
D03*
X4737D02*
D03*
X4767D02*
D03*
X4796D02*
D03*
X4826D02*
D03*
X4855D02*
D03*
X4737Y4086D02*
D03*
X4767D02*
D03*
X4796D02*
D03*
X4826D02*
D03*
X4855D02*
D03*
X4462D02*
D03*
X4432D02*
D03*
X4403D02*
D03*
X4373D02*
D03*
X4344D02*
D03*
X4462Y3914D02*
D03*
X4432D02*
D03*
X4403D02*
D03*
X4373D02*
D03*
X4344D02*
D03*
X3281Y4086D02*
D03*
X3251D02*
D03*
X3221D02*
D03*
X3192D02*
D03*
X3162D02*
D03*
X3281Y3914D02*
D03*
X3251D02*
D03*
X3221D02*
D03*
X3192D02*
D03*
X3162D02*
D03*
X2769Y3914D02*
D03*
X2798D02*
D03*
X2828D02*
D03*
X2857D02*
D03*
X2887D02*
D03*
X2769Y4085D02*
D03*
X2798D02*
D03*
X2828D02*
D03*
X2857D02*
D03*
X2887D02*
D03*
X4068Y4086D02*
D03*
X4038D02*
D03*
X4009D02*
D03*
X3979D02*
D03*
X3950D02*
D03*
X4068Y3914D02*
D03*
X4038D02*
D03*
X4009D02*
D03*
X3979D02*
D03*
X3950D02*
D03*
D13*
X2059Y4161D02*
D03*
Y4135D02*
D03*
Y4110D02*
D03*
Y4084D02*
D03*
Y4058D02*
D03*
Y4033D02*
D03*
Y4007D02*
D03*
Y3982D02*
D03*
Y3956D02*
D03*
Y3930D02*
D03*
Y3905D02*
D03*
Y3879D02*
D03*
X2291Y4161D02*
D03*
Y4135D02*
D03*
Y4110D02*
D03*
Y4084D02*
D03*
Y4058D02*
D03*
Y4033D02*
D03*
Y4007D02*
D03*
Y3982D02*
D03*
Y3956D02*
D03*
Y3930D02*
D03*
Y3905D02*
D03*
Y3879D02*
D03*
D14*
X2665Y4108D02*
D03*
Y4052D02*
D03*
X3055Y4102D02*
D03*
Y4047D02*
D03*
X3461Y4102D02*
D03*
Y4047D02*
D03*
X3847Y4102D02*
D03*
Y4047D02*
D03*
X4238Y4102D02*
D03*
Y4047D02*
D03*
X4619Y4102D02*
D03*
Y4047D02*
D03*
X5040Y4102D02*
D03*
Y4047D02*
D03*
X2989Y4102D02*
D03*
Y4047D02*
D03*
X3405Y4102D02*
D03*
Y4047D02*
D03*
X3781Y4102D02*
D03*
Y4047D02*
D03*
X4177Y4102D02*
D03*
Y4047D02*
D03*
X4560Y4103D02*
D03*
Y4047D02*
D03*
X4955Y4103D02*
D03*
Y4047D02*
D03*
X5340Y4103D02*
D03*
Y4047D02*
D03*
X2665Y3892D02*
D03*
Y3948D02*
D03*
X3055Y3892D02*
D03*
Y3947D02*
D03*
X3461Y3892D02*
D03*
Y3947D02*
D03*
X3847Y3892D02*
D03*
Y3947D02*
D03*
X4238Y3892D02*
D03*
Y3947D02*
D03*
X4619Y3892D02*
D03*
Y3947D02*
D03*
X5035Y3892D02*
D03*
Y3948D02*
D03*
X2989Y3892D02*
D03*
Y3947D02*
D03*
X3405Y3892D02*
D03*
Y3947D02*
D03*
X3781Y3892D02*
D03*
Y3947D02*
D03*
X4177Y3892D02*
D03*
Y3947D02*
D03*
X4560Y3892D02*
D03*
Y3948D02*
D03*
X4950Y3892D02*
D03*
Y3948D02*
D03*
X5340Y3892D02*
D03*
Y3948D02*
D03*
X1980Y3908D02*
D03*
Y3852D02*
D03*
D15*
X2241Y4161D02*
X2291D01*
X2230Y4150D02*
X2241Y4161D01*
X2110Y3835D02*
Y3930D01*
X2465Y3895D02*
X2485Y3875D01*
X2631Y4149D02*
X2670D01*
X2620Y4139D02*
X2631Y4149D01*
X2620Y4000D02*
Y4139D01*
X1935Y3980D02*
Y4010D01*
X1915Y3960D02*
X1935Y3980D01*
X1906Y3960D02*
X1915D01*
X1906D02*
X1935Y3931D01*
Y3905D02*
Y3931D01*
X1980Y3908D02*
X2008Y3879D01*
X2059D01*
X1975Y3913D02*
X1980Y3908D01*
X1953Y3913D02*
X1975D01*
X1935Y3905D02*
X1945D01*
X1953Y3913D01*
X2485Y3875D02*
X2490D01*
X2495D02*
X2620Y4000D01*
X2560Y3830D02*
X2665D01*
X2665Y3830D01*
X2665Y4144D02*
X2670Y4149D01*
X2665Y4108D02*
Y4144D01*
X3847Y3830D02*
X3950D01*
X3781D02*
X3847D01*
X3461D02*
X3781D01*
X3405D02*
X3461D01*
X3055D02*
X3405D01*
X2989D02*
X3055D01*
X2665D02*
X2989D01*
X2665Y3830D02*
Y3892D01*
X2747D02*
X2769Y3914D01*
X2665Y3892D02*
X2747D01*
X2887Y4085D02*
X2904Y4102D01*
X2989D01*
X3140Y3892D02*
X3162Y3914D01*
X3055Y3892D02*
X3140D01*
X3281Y4086D02*
X3297Y4102D01*
X3405D01*
X3674Y4086D02*
X3691Y4102D01*
X3781D01*
X3534Y3892D02*
X3556Y3914D01*
X3461Y3892D02*
X3534D01*
X3927D02*
X3950Y3914D01*
X3847Y3892D02*
X3927D01*
X5108D02*
X5131Y3914D01*
X5040Y3892D02*
X5108D01*
X4715D02*
X4737Y3914D01*
X4619Y3892D02*
X4715D01*
X4321D02*
X4344Y3914D01*
X4238Y3892D02*
X4321D01*
X4553Y4103D02*
Y4148D01*
Y4103D02*
X4560D01*
X4479D02*
X4553D01*
X4462Y4086D02*
X4479Y4103D01*
X4068Y4086D02*
X4084Y4102D01*
X4177D01*
X3950Y3830D02*
X3950Y3830D01*
X4619D01*
X4560Y3835D02*
Y3892D01*
X4945Y3830D02*
X5040D01*
X4619D02*
X4945D01*
Y3897D02*
X4945Y3897D01*
X4945Y3830D02*
Y3897D01*
X2670Y4149D02*
X5039D01*
X4945Y4144D02*
X4945Y4144D01*
X4945Y4103D02*
Y4144D01*
X4859Y4096D02*
X4866Y4103D01*
X4945D01*
X5040Y3830D02*
X5326D01*
X3461D02*
Y3892D01*
X3405Y3830D02*
Y3892D01*
X3055Y3830D02*
Y3892D01*
X2989Y3830D02*
Y3892D01*
X5039Y4149D02*
X5345D01*
Y4150D01*
Y4102D02*
Y4149D01*
Y4150D02*
X5380D01*
X5455Y3865D02*
Y4155D01*
X5445Y3855D02*
X5455Y3865D01*
X5351Y3855D02*
X5445D01*
X5345Y3849D02*
X5351Y3855D01*
X5410Y4200D02*
X5455Y4155D01*
X5040Y3830D02*
Y3892D01*
X5326Y3830D02*
X5345Y3849D01*
X4619Y3830D02*
Y3892D01*
X4238Y3830D02*
Y3892D01*
X4177Y3830D02*
Y3892D01*
X3847Y3830D02*
Y3892D01*
X3781Y3830D02*
Y3892D01*
X5345Y3849D02*
Y3892D01*
X2989Y4102D02*
Y4149D01*
X3055Y4102D02*
Y4148D01*
X3405Y4102D02*
Y4148D01*
X3461Y4102D02*
Y4147D01*
X3847Y4102D02*
Y4147D01*
X3781Y4102D02*
Y4146D01*
X5250Y4102D02*
X5345D01*
X4177D02*
Y4146D01*
X4238Y4102D02*
Y4148D01*
X4619Y4102D02*
Y4149D01*
X5039Y4149D02*
X5040Y4148D01*
Y4102D02*
Y4148D01*
D16*
X1807Y3835D02*
X2110D01*
X1737Y3905D02*
X1807Y3835D01*
X2501D02*
X2665Y3999D01*
X2110Y3835D02*
X2501D01*
X1695Y3905D02*
X1737D01*
X2665Y3999D02*
X2913D01*
X2664D02*
X2665D01*
X2913D02*
X4560D01*
X2665Y3999D02*
X2665Y3999D01*
X2665Y3999D02*
Y4052D01*
X2665Y3999D02*
X2665Y3999D01*
Y3948D02*
Y3999D01*
X4560Y3999D02*
Y4047D01*
Y3948D02*
Y3999D01*
X4560Y4047D02*
X4560Y4047D01*
X4945Y3999D02*
X5040D01*
X4560D02*
X4945D01*
Y4047D01*
Y3953D02*
Y3999D01*
X5345Y3948D02*
Y3999D01*
Y3948D02*
X5362D01*
X5340D02*
X5345D01*
X5362D02*
X5410Y3900D01*
X2989Y3947D02*
Y4047D01*
X3055Y3947D02*
Y4047D01*
X3405Y3947D02*
Y4047D01*
X3461Y3947D02*
Y4047D01*
X5040Y3947D02*
X5040Y3947D01*
X5040Y3947D02*
Y3999D01*
X3781Y3947D02*
Y4047D01*
X3847Y3947D02*
Y4047D01*
X4177Y3947D02*
Y4047D01*
X4238Y3947D02*
Y4047D01*
X4619Y3947D02*
Y4047D01*
X5040Y3999D02*
X5345D01*
X5040D02*
Y4047D01*
X5345Y3999D02*
Y4047D01*
D17*
X2345Y3900D02*
X2395D01*
X2315Y3930D02*
X2345Y3900D01*
X2155Y4180D02*
X2318D01*
X2150Y4175D02*
X2155Y4180D01*
X2150Y4045D02*
Y4175D01*
X2087Y3982D02*
X2150Y4045D01*
X2135Y4055D02*
Y4185D01*
X2087Y4007D02*
X2135Y4055D01*
Y4185D02*
X2144Y4194D01*
X2324D01*
X2059Y3982D02*
X2087D01*
X2059Y4007D02*
X2087D01*
X2115Y4060D02*
Y4190D01*
X2088Y4033D02*
X2115Y4060D01*
X2059Y4033D02*
X2088D01*
X2133Y4208D02*
X2329D01*
X2127Y4222D02*
X2343D01*
X2115Y4190D02*
X2133Y4208D01*
X2097Y4192D02*
X2127Y4222D01*
X2097Y4072D02*
Y4192D01*
X2080Y4055D02*
X2097Y4072D01*
X2375Y4163D02*
X2402D01*
X2329Y4208D02*
X2375Y4163D01*
X2408Y4177D02*
X2458Y4127D01*
X2388Y4177D02*
X2408D01*
X2343Y4222D02*
X2388Y4177D01*
X2402Y4163D02*
X2470Y4095D01*
X2396Y4149D02*
X2465Y4080D01*
X2369Y4149D02*
X2396D01*
X2390Y4135D02*
X2459Y4066D01*
X2363Y4135D02*
X2390D01*
X2458Y4127D02*
X2493D01*
X2318Y4180D02*
X2363Y4135D01*
X2324Y4194D02*
X2369Y4149D01*
X2459Y4066D02*
X2526D01*
X2465Y4080D02*
X2520D01*
X2470Y4095D02*
X2515D01*
X2528Y4107D01*
Y4134D01*
X2529Y4135D01*
X2590Y4130D02*
Y4150D01*
X2526Y4066D02*
X2590Y4130D01*
X2520Y4080D02*
X2565Y4125D01*
Y4150D01*
X2529Y4135D02*
X2529Y4135D01*
X2491Y4125D02*
X2493Y4127D01*
X2336Y4060D02*
X2380D01*
X2336Y4085D02*
X2350D01*
X2345Y4110D02*
X2380D01*
X2320Y4135D02*
X2345Y4110D01*
X2335Y4035D02*
X2350D01*
X2334Y4010D02*
X2380D01*
X2312Y4033D02*
X2334Y4010D01*
X2334Y3985D02*
X2354D01*
X2333Y3960D02*
X2380D01*
X2339Y3946D02*
X2355Y3930D01*
X2322Y3946D02*
X2339D01*
X2590Y4150D02*
X2605Y4165D01*
X2011Y4084D02*
X2059D01*
X2005Y4090D02*
X2011Y4084D01*
X2034Y4161D02*
X2059D01*
X2010Y4185D02*
X2034Y4161D01*
X2014Y4160D02*
X2038Y4135D01*
X1975Y4160D02*
X2014D01*
X2038Y4135D02*
X2059D01*
X2038Y4110D02*
X2059D01*
X2018Y4130D02*
X2038Y4110D01*
X2000Y4130D02*
X2018D01*
X2291Y4135D02*
X2320D01*
X2312Y4084D02*
X2336Y4060D01*
X2312Y3982D02*
X2333Y3960D01*
X2312Y4007D02*
X2334Y3985D01*
X2312Y4058D02*
X2335Y4035D01*
X2312Y3956D02*
X2322Y3946D01*
X2312Y4110D02*
X2336Y4085D01*
X2291Y4110D02*
X2312D01*
X2291Y4084D02*
X2312D01*
X2291Y4058D02*
X2312D01*
X2291Y4033D02*
X2312D01*
X2291Y4007D02*
X2312D01*
X2291Y3982D02*
X2312D01*
X2291Y3956D02*
X2312D01*
X2291Y3930D02*
X2315D01*
X2291Y4110D02*
X2291Y4110D01*
X1991Y4060D02*
X2019Y4032D01*
X2031Y3905D02*
X2059D01*
X1978Y3958D02*
X2031Y3905D01*
X1965Y3958D02*
X1978D01*
X1965Y3960D02*
X1966Y3961D01*
Y3992D01*
X2019Y3971D02*
Y4032D01*
X1990Y4060D02*
X1991D01*
X1960Y3998D02*
Y4032D01*
X1942Y4050D02*
X1960Y4032D01*
X1935Y4050D02*
X1942D01*
X1960Y3998D02*
X1966Y3992D01*
X1990Y4060D02*
X1994Y4056D01*
Y4053D02*
Y4056D01*
X1974Y4021D02*
X1980Y4015D01*
X1974Y4021D02*
Y4038D01*
X1965Y4047D02*
X1974Y4038D01*
X1995Y4010D02*
Y4015D01*
X1980D02*
X1995D01*
X1965Y4047D02*
Y4075D01*
X2019Y3971D02*
X2034Y3956D01*
X2059D01*
X1995Y3961D02*
X2019Y3937D01*
X1995Y3961D02*
Y4010D01*
X2019Y3937D02*
X2053D01*
X1965Y3958D02*
Y3960D01*
X2225Y3905D02*
X2291D01*
X2200Y3880D02*
X2225Y3905D01*
X2291Y3905D02*
Y3905D01*
X2245Y3880D02*
X2290D01*
X2291Y3879D01*
X2053Y3937D02*
X2059Y3930D01*
X1800Y3955D02*
X1850Y3905D01*
X1655Y3955D02*
X1800D01*
X1826Y3974D02*
X1895Y3905D01*
X1564Y3974D02*
X1826D01*
X1595Y3895D02*
X1655Y3955D01*
X1495Y3905D02*
X1564Y3974D01*
X2840Y3855D02*
X2860Y3875D01*
Y3911D01*
X2805Y3855D02*
X2840D01*
X2857Y3914D02*
X2860Y3911D01*
X2800Y3860D02*
X2805Y3855D01*
X2887Y3914D02*
X2917D01*
X2940Y3890D01*
X3251Y3861D02*
Y3914D01*
X3281D02*
X3315Y3880D01*
X3674Y3866D02*
Y3914D01*
Y3866D02*
X3680Y3860D01*
X3645Y3885D02*
Y3914D01*
X3620Y3860D02*
X3645Y3885D01*
X4038Y3873D02*
Y3914D01*
X4025Y3860D02*
X4038Y3873D01*
X4068Y3914D02*
X4107Y3875D01*
X4115D01*
X4462Y3914D02*
X4466D01*
X4500Y3880D01*
X4432Y3872D02*
Y3914D01*
X4420Y3860D02*
X4432Y3872D01*
X4400Y3860D02*
X4420D01*
X4855Y3865D02*
Y3914D01*
X4850Y3860D02*
X4855Y3865D01*
X4826Y3876D02*
Y3914D01*
X4810Y3860D02*
X4826Y3876D01*
X4760Y3860D02*
X4810D01*
X5384Y4074D02*
X5410Y4100D01*
X5318Y4074D02*
X5384D01*
X5274Y4030D02*
X5318Y4074D01*
X5220Y4030D02*
X5274D01*
X5219Y4031D02*
X5220Y4030D01*
X5250Y3899D02*
X5289Y3859D01*
X5250Y3899D02*
Y3914D01*
X5220Y3864D02*
X5224Y3859D01*
X5220Y3864D02*
Y3914D01*
D18*
X5460Y4200D02*
G03*
X5360Y4200I-50J0D01*
G01*
X5600Y4060D02*
G03*
X5460Y4200I-140J0D01*
G01*
X5360Y3800D02*
G03*
X5460Y3800I50J0D01*
G01*
D02*
G03*
X5600Y3940I0J140D01*
G01*
X1900Y4000D02*
Y4425D01*
X2430Y4200D02*
X5360D01*
X5480Y4060D02*
X5600D01*
X1225Y4000D02*
X1900D01*
X2030Y4425D02*
X2430Y4200D01*
X5480Y3940D02*
X5600D01*
X1225Y3800D02*
Y4000D01*
X1900Y4425D02*
X2030D01*
X5480Y3940D02*
Y4060D01*
X1225Y3800D02*
X5360D01*
D19*
X5410Y4200D02*
D03*
Y4100D02*
D03*
Y4000D02*
D03*
Y3900D02*
D03*
Y3800D02*
D03*
X1395Y3915D02*
D03*
X1495D02*
D03*
X1595D02*
D03*
X1695D02*
D03*
D20*
X2005Y4325D02*
D03*
D21*
X1295Y3915D02*
D03*
D22*
X2230Y4150D02*
D03*
X2529Y4135D02*
D03*
X2565Y4150D02*
D03*
X2605Y4165D02*
D03*
X2493Y4127D02*
D03*
X2380Y4060D02*
D03*
X2350Y4085D02*
D03*
Y4035D02*
D03*
X2354Y3985D02*
D03*
X2380Y4010D02*
D03*
Y3960D02*
D03*
X2355Y3930D02*
D03*
X2005Y4090D02*
D03*
X2000Y4130D02*
D03*
X1975Y4160D02*
D03*
X2010Y4185D02*
D03*
X2380Y4110D02*
D03*
X2110Y3930D02*
D03*
X1994Y4053D02*
D03*
X1965Y4075D02*
D03*
X1935Y4050D02*
D03*
X2200Y3880D02*
D03*
X2245D02*
D03*
X1935Y3905D02*
D03*
X1850D02*
D03*
X1895D02*
D03*
X2800Y3860D02*
D03*
X2560Y3835D02*
D03*
X2490Y3875D02*
D03*
X2940Y3890D02*
D03*
X3251Y3861D02*
D03*
X3315Y3880D02*
D03*
X3680Y3860D02*
D03*
X3620D02*
D03*
X4025D02*
D03*
X4115Y3875D02*
D03*
X4500Y3880D02*
D03*
X4400Y3860D02*
D03*
X4850D02*
D03*
X5380Y4150D02*
D03*
X5219Y4031D02*
D03*
X4760Y3860D02*
D03*
X5289Y3859D02*
D03*
X5224D02*
D03*
M02*
