%FSLAX23Y23*%
%MOIN*%
G70*
G01*
G75*
%ADD10R,0.028X0.035*%
%ADD11R,0.063X0.016*%
%ADD12R,0.014X0.063*%
%ADD13O,0.055X0.018*%
%ADD14R,0.035X0.031*%
%ADD15C,0.015*%
%ADD16C,0.020*%
%ADD17C,0.007*%
%ADD18C,0.005*%
%ADD19C,0.059*%
%ADD20C,0.100*%
%ADD21R,0.059X0.059*%
%ADD22C,0.029*%
%ADD23R,0.039X0.020*%
%ADD24R,0.020X0.039*%
%ADD25R,0.035X0.028*%
%ADD26C,0.010*%
%ADD27C,0.024*%
%ADD28C,0.010*%
%ADD29C,0.008*%
%ADD30R,0.030X0.037*%
%ADD31R,0.065X0.018*%
%ADD32R,0.016X0.065*%
%ADD33O,0.057X0.020*%
%ADD34R,0.037X0.033*%
%ADD35C,0.061*%
%ADD36C,0.102*%
%ADD37R,0.061X0.061*%
%ADD38R,0.041X0.022*%
%ADD39R,0.022X0.041*%
%ADD40R,0.037X0.030*%
%ADD41C,0.004*%
%ADD42C,0.002*%
%ADD43C,0.007*%
D18*
X5460Y4200D02*
G03*
X5360Y4200I-50J0D01*
G01*
X5600Y4060D02*
G03*
X5460Y4200I-140J0D01*
G01*
X5360Y3800D02*
G03*
X5460Y3800I50J0D01*
G01*
D02*
G03*
X5600Y3940I0J140D01*
G01*
X1900Y4000D02*
Y4425D01*
X2430Y4200D02*
X5360D01*
X5480Y4060D02*
X5600D01*
X1225Y4000D02*
X1900D01*
X2030Y4425D02*
X2430Y4200D01*
X5480Y3940D02*
X5600D01*
X1225Y3800D02*
Y4000D01*
X1900Y4425D02*
X2030D01*
X5480Y3940D02*
Y4060D01*
X1225Y3800D02*
X5360D01*
X5392Y4200D02*
X5428D01*
X5410Y4182D02*
Y4218D01*
X5392Y4100D02*
X5428D01*
X5410Y4082D02*
Y4118D01*
X5392Y4000D02*
X5428D01*
X5410Y3982D02*
Y4018D01*
X5392Y3900D02*
X5428D01*
X5410Y3882D02*
Y3918D01*
X5392Y3800D02*
X5428D01*
X5410Y3782D02*
Y3818D01*
X1955Y4325D02*
X2055D01*
X2005Y4275D02*
Y4375D01*
X1277Y3915D02*
X1313D01*
X1295Y3897D02*
Y3933D01*
X1377Y3915D02*
X1413D01*
X1395Y3897D02*
Y3933D01*
X1477Y3915D02*
X1513D01*
X1495Y3897D02*
Y3933D01*
X1577Y3915D02*
X1613D01*
X1595Y3897D02*
Y3933D01*
X1677Y3915D02*
X1713D01*
X1695Y3897D02*
Y3933D01*
X2223Y4150D02*
X2237D01*
X2230Y4142D02*
Y4157D01*
X2522Y4135D02*
X2537D01*
X2529Y4128D02*
Y4142D01*
X2557Y4150D02*
X2572D01*
X2565Y4142D02*
Y4157D01*
X2598Y4165D02*
X2612D01*
X2605Y4157D02*
Y4173D01*
X2486Y4127D02*
X2501D01*
X2493Y4120D02*
Y4135D01*
X2372Y4060D02*
X2388D01*
X2380Y4052D02*
Y4068D01*
X2342Y4085D02*
X2358D01*
X2350Y4077D02*
Y4093D01*
X2342Y4035D02*
X2358D01*
X2350Y4028D02*
Y4043D01*
X2347Y3985D02*
X2362D01*
X2354Y3977D02*
Y3993D01*
X2372Y4010D02*
X2388D01*
X2380Y4003D02*
Y4017D01*
X2372Y3960D02*
X2388D01*
X2380Y3953D02*
Y3967D01*
X2348Y3930D02*
X2362D01*
X2355Y3922D02*
Y3938D01*
X1997Y4090D02*
X2013D01*
X2005Y4082D02*
Y4097D01*
X1992Y4130D02*
X2007D01*
X2000Y4122D02*
Y4137D01*
X1967Y4160D02*
X1982D01*
X1975Y4153D02*
Y4168D01*
X2003Y4185D02*
X2017D01*
X2010Y4177D02*
Y4193D01*
X2372Y4110D02*
X2388D01*
X2380Y4102D02*
Y4117D01*
X2102Y3930D02*
X2118D01*
X2110Y3922D02*
Y3938D01*
X1986Y4053D02*
X2001D01*
X1994Y4046D02*
Y4061D01*
X1957Y4075D02*
X1972D01*
X1965Y4068D02*
Y4082D01*
X1928Y4050D02*
X1942D01*
X1935Y4043D02*
Y4057D01*
X2193Y3880D02*
X2207D01*
X2200Y3872D02*
Y3888D01*
X2237Y3880D02*
X2253D01*
X2245Y3872D02*
Y3888D01*
X1928Y3905D02*
X1942D01*
X1935Y3898D02*
Y3912D01*
X1842Y3905D02*
X1857D01*
X1850Y3898D02*
Y3912D01*
X1888Y3905D02*
X1903D01*
X1895Y3898D02*
Y3912D01*
X2793Y3860D02*
X2807D01*
X2800Y3852D02*
Y3868D01*
X2553Y3835D02*
X2568D01*
X2560Y3828D02*
Y3842D01*
X2483Y3875D02*
X2497D01*
X2490Y3868D02*
Y3882D01*
X2933Y3890D02*
X2948D01*
X2940Y3882D02*
Y3898D01*
X3244Y3861D02*
X3259D01*
X3251Y3854D02*
Y3869D01*
X3307Y3880D02*
X3322D01*
X3315Y3873D02*
Y3888D01*
X3672Y3860D02*
X3688D01*
X3680Y3852D02*
Y3868D01*
X3612Y3860D02*
X3628D01*
X3620Y3852D02*
Y3868D01*
X4017Y3860D02*
X4032D01*
X4025Y3852D02*
Y3868D01*
X4108Y3875D02*
X4122D01*
X4115Y3868D02*
Y3882D01*
X4493Y3880D02*
X4508D01*
X4500Y3872D02*
Y3887D01*
X4392Y3860D02*
X4407D01*
X4400Y3852D02*
Y3868D01*
X4843Y3860D02*
X4858D01*
X4850Y3852D02*
Y3868D01*
X5372Y4150D02*
X5387D01*
X5380Y4142D02*
Y4157D01*
X5212Y4031D02*
X5227D01*
X5219Y4023D02*
Y4038D01*
X4753Y3860D02*
X4767D01*
X4760Y3852D02*
Y3868D01*
X5282Y3859D02*
X5297D01*
X5289Y3852D02*
Y3867D01*
X5217Y3859D02*
X5232D01*
X5224Y3852D02*
Y3867D01*
M02*
