%FSLAX23Y23*%
%MOIN*%
G70*
G01*
G75*
G04 Layer_Color=2752767*
%ADD10R,0.028X0.035*%
%ADD11R,0.063X0.016*%
%ADD12R,0.014X0.063*%
%ADD13O,0.055X0.018*%
%ADD14R,0.035X0.031*%
%ADD15C,0.015*%
%ADD16C,0.020*%
%ADD17C,0.007*%
%ADD18C,0.005*%
%ADD19C,0.059*%
%ADD20C,0.100*%
%ADD21R,0.059X0.059*%
%ADD22C,0.029*%
%ADD23R,0.039X0.020*%
%ADD24R,0.020X0.039*%
%ADD25R,0.035X0.028*%
%ADD26C,0.010*%
%ADD27C,0.024*%
%ADD28C,0.010*%
%ADD29C,0.008*%
%ADD30R,0.030X0.037*%
%ADD31R,0.065X0.018*%
%ADD32R,0.016X0.065*%
%ADD33O,0.057X0.020*%
%ADD34R,0.037X0.033*%
%ADD35C,0.061*%
%ADD36C,0.102*%
%ADD37R,0.061X0.061*%
%ADD38R,0.041X0.022*%
%ADD39R,0.022X0.041*%
%ADD40R,0.037X0.030*%
%ADD41C,0.004*%
%ADD42C,0.002*%
%ADD43C,0.007*%
D18*
X5460Y4200D02*
G03*
X5360Y4200I-50J0D01*
G01*
X5600Y4060D02*
G03*
X5460Y4200I-140J0D01*
G01*
X5360Y3800D02*
G03*
X5460Y3800I50J0D01*
G01*
D02*
G03*
X5600Y3940I0J140D01*
G01*
X1900Y4000D02*
Y4425D01*
X2430Y4200D02*
X5360D01*
X5480Y4060D02*
X5600D01*
X1225Y4000D02*
X1900D01*
X2030Y4425D02*
X2430Y4200D01*
X5480Y3940D02*
X5600D01*
X1225Y3800D02*
Y4000D01*
X1900Y4425D02*
X2030D01*
X5480Y3940D02*
Y4060D01*
X1225Y3800D02*
X5360D01*
X5390Y4180D02*
Y4220D01*
X5430D01*
Y4180D01*
X5390D01*
Y4080D02*
Y4120D01*
X5430D01*
Y4080D01*
X5390D01*
Y3980D02*
Y4020D01*
X5430D01*
Y3980D01*
X5390D01*
Y3880D02*
Y3920D01*
X5430D01*
Y3880D01*
X5390D01*
Y3780D02*
Y3820D01*
X5430D01*
Y3780D01*
X5390D01*
X1275Y3895D02*
Y3935D01*
X1315D01*
Y3895D01*
X1275D01*
X1375D02*
Y3935D01*
X1415D01*
Y3895D01*
X1375D01*
X1475D02*
Y3935D01*
X1515D01*
Y3895D01*
X1475D01*
X1575D02*
Y3935D01*
X1615D01*
Y3895D01*
X1575D01*
X1675D02*
Y3935D01*
X1715D01*
Y3895D01*
X1675D01*
X2230Y4130D02*
X2210Y4170D01*
X2250D01*
X2230Y4130D01*
X2529Y4115D02*
X2509Y4155D01*
X2549D01*
X2529Y4115D01*
X2565Y4130D02*
X2545Y4170D01*
X2585D01*
X2565Y4130D01*
X2605Y4145D02*
X2585Y4185D01*
X2625D01*
X2605Y4145D01*
X2493Y4107D02*
X2473Y4147D01*
X2513D01*
X2493Y4107D01*
X2380Y4040D02*
X2360Y4080D01*
X2400D01*
X2380Y4040D01*
X2350Y4065D02*
X2330Y4105D01*
X2370D01*
X2350Y4065D01*
Y4015D02*
X2330Y4055D01*
X2370D01*
X2350Y4015D01*
X2354Y3965D02*
X2334Y4005D01*
X2374D01*
X2354Y3965D01*
X2380Y3990D02*
X2360Y4030D01*
X2400D01*
X2380Y3990D01*
Y3940D02*
X2360Y3980D01*
X2400D01*
X2380Y3940D01*
X2355Y3910D02*
X2335Y3950D01*
X2375D01*
X2355Y3910D01*
X2005Y4070D02*
X1985Y4110D01*
X2025D01*
X2005Y4070D01*
X2000Y4110D02*
X1980Y4150D01*
X2020D01*
X2000Y4110D01*
X1975Y4140D02*
X1955Y4180D01*
X1995D01*
X1975Y4140D01*
X2010Y4165D02*
X1990Y4205D01*
X2030D01*
X2010Y4165D01*
X2380Y4090D02*
X2360Y4130D01*
X2400D01*
X2380Y4090D01*
X2110Y3910D02*
X2090Y3950D01*
X2130D01*
X2110Y3910D01*
X1994Y4033D02*
X1974Y4073D01*
X2014D01*
X1994Y4033D01*
X1965Y4055D02*
X1945Y4095D01*
X1985D01*
X1965Y4055D01*
X1935Y4030D02*
X1915Y4070D01*
X1955D01*
X1935Y4030D01*
X2200Y3860D02*
X2180Y3900D01*
X2220D01*
X2200Y3860D01*
X2245D02*
X2225Y3900D01*
X2265D01*
X2245Y3860D01*
X1935Y3885D02*
X1915Y3925D01*
X1955D01*
X1935Y3885D01*
X1850D02*
X1830Y3925D01*
X1870D01*
X1850Y3885D01*
X1895D02*
X1875Y3925D01*
X1915D01*
X1895Y3885D01*
X2800Y3840D02*
X2780Y3880D01*
X2820D01*
X2800Y3840D01*
X2560Y3815D02*
X2540Y3855D01*
X2580D01*
X2560Y3815D01*
X2490Y3855D02*
X2470Y3895D01*
X2510D01*
X2490Y3855D01*
X2940Y3870D02*
X2920Y3910D01*
X2960D01*
X2940Y3870D01*
X3251Y3841D02*
X3231Y3881D01*
X3271D01*
X3251Y3841D01*
X3315Y3860D02*
X3295Y3900D01*
X3335D01*
X3315Y3860D01*
X3680Y3840D02*
X3660Y3880D01*
X3700D01*
X3680Y3840D01*
X3620D02*
X3600Y3880D01*
X3640D01*
X3620Y3840D01*
X4025D02*
X4005Y3880D01*
X4045D01*
X4025Y3840D01*
X4115Y3855D02*
X4095Y3895D01*
X4135D01*
X4115Y3855D01*
X4500Y3860D02*
X4480Y3900D01*
X4520D01*
X4500Y3860D01*
X4400Y3840D02*
X4380Y3880D01*
X4420D01*
X4400Y3840D01*
X4850D02*
X4830Y3880D01*
X4870D01*
X4850Y3840D01*
X5380Y4130D02*
X5360Y4170D01*
X5400D01*
X5380Y4130D01*
X5219Y4011D02*
X5199Y4051D01*
X5239D01*
X5219Y4011D01*
X4760Y3840D02*
X4740Y3880D01*
X4780D01*
X4760Y3840D01*
X5289Y3839D02*
X5269Y3879D01*
X5309D01*
X5289Y3839D01*
X5224D02*
X5204Y3879D01*
X5244D01*
X5224Y3839D01*
D43*
X2025Y4325D02*
G03*
X2025Y4325I-20J0D01*
G01*
M02*
