%FSLAX23Y23*%
%MOIN*%
G70*
G01*
G75*
G04 Layer_Physical_Order=2*
G04 Layer_Color=16711680*
%ADD10R,0.028X0.035*%
%ADD11R,0.063X0.016*%
%ADD12R,0.014X0.063*%
%ADD13O,0.055X0.018*%
%ADD14R,0.035X0.031*%
%ADD15C,0.015*%
%ADD16C,0.020*%
%ADD17C,0.007*%
%ADD18C,0.005*%
%ADD19C,0.059*%
%ADD20C,0.100*%
%ADD21R,0.059X0.059*%
%ADD22C,0.029*%
%ADD23R,0.039X0.020*%
%ADD24R,0.020X0.039*%
%ADD25R,0.035X0.028*%
D10*
X5490Y3900D02*
D03*
X5550D02*
D03*
X5490Y4100D02*
D03*
X5550D02*
D03*
X3455Y3955D02*
D03*
X3515D02*
D03*
X3740Y3955D02*
D03*
X3680D02*
D03*
X3375D02*
D03*
X3315D02*
D03*
X4909Y3954D02*
D03*
X4850D02*
D03*
X4230Y3940D02*
D03*
X4290D02*
D03*
X3815Y3955D02*
D03*
X3875D02*
D03*
X4174Y3940D02*
D03*
X4115D02*
D03*
X5350Y3920D02*
D03*
X5290D02*
D03*
X4560Y3945D02*
D03*
X4500D02*
D03*
D14*
X2225Y4057D02*
D03*
Y4113D02*
D03*
D15*
X2110Y3964D02*
X2155D01*
X2065D02*
X2110D01*
X2060D02*
X2065D01*
X2289Y3925D02*
Y4006D01*
X2238Y4057D02*
X2289Y4006D01*
X2225Y4057D02*
X2238D01*
X2110Y3930D02*
Y3964D01*
X2155D02*
X2196D01*
X2201Y3959D01*
Y3925D02*
Y3959D01*
X2060Y3846D02*
X2155D01*
X1945D02*
X2060D01*
Y3871D01*
X2155Y3846D02*
X2285D01*
X2155D02*
Y3871D01*
X2289Y3850D02*
Y3925D01*
X2285Y3846D02*
X2289Y3850D01*
X2285Y3846D02*
X2461D01*
X1345Y3825D02*
X2549D01*
X1916Y3876D02*
X1945Y3846D01*
X1907Y3876D02*
X1916D01*
X1907D02*
X1935Y3904D01*
X1824Y3876D02*
X1907D01*
X1730Y3970D02*
X1824Y3876D01*
X1935Y3904D02*
Y3905D01*
X1460Y3970D02*
X1730D01*
X1295Y3875D02*
Y3915D01*
X1395Y3905D02*
X1460Y3970D01*
X4560Y3829D02*
X4654D01*
X3865D02*
X4560D01*
X4560Y3830D02*
X4560Y3829D01*
X4560Y3830D02*
Y3945D01*
X2461Y3846D02*
X2490Y3875D01*
X2549Y3825D02*
X2560Y3835D01*
X1295Y3875D02*
X1345Y3825D01*
X2575Y3870D02*
X2616Y3829D01*
X2495Y3870D02*
X2575D01*
X2616Y3829D02*
X2665D01*
Y3863D01*
Y3829D02*
X3110D01*
Y3890D01*
X2985Y3829D02*
Y3875D01*
X3455Y3829D02*
X3740D01*
X2879D02*
X3455D01*
X3455Y3830D01*
Y3955D01*
X3740Y3829D02*
X3779D01*
X3740Y3830D02*
X3740Y3829D01*
X3740Y3830D02*
Y3955D01*
X3810Y3829D02*
X3865D01*
X3779D02*
X3810D01*
X3815Y3835D01*
Y3955D01*
X3865Y3830D02*
X3865Y3829D01*
X4175Y3830D02*
Y3940D01*
X4230Y3829D02*
Y3940D01*
X5550Y3895D02*
Y3910D01*
X5485Y3830D02*
X5550Y3895D01*
X5420Y3830D02*
X5485D01*
X5550Y4100D02*
Y4110D01*
X5510Y4150D02*
X5550Y4110D01*
X5380Y4150D02*
X5510D01*
X5130Y3830D02*
X5420D01*
X4909D02*
X5130D01*
X5130Y3875D02*
X5130Y3875D01*
Y3830D02*
Y3875D01*
X5420Y3800D02*
Y3830D01*
X5354Y3834D02*
Y3919D01*
X4654Y3829D02*
X4909D01*
X4909Y3830D02*
Y3954D01*
X4654Y3829D02*
X4654Y3829D01*
X4654Y3829D02*
Y3870D01*
X3374Y3830D02*
Y3955D01*
D16*
X2155Y3964D02*
Y4045D01*
X2223Y4113D01*
X2225D01*
X2230Y4118D02*
Y4150D01*
X2225Y4113D02*
X2230Y4118D01*
D17*
X2291Y4214D02*
X2356Y4149D01*
X2004Y4214D02*
X2291D01*
X1975Y4185D02*
X2004Y4214D01*
X2297Y4228D02*
X2362Y4163D01*
X1998Y4228D02*
X2297D01*
X1950Y4180D02*
X1998Y4228D01*
X2302Y4242D02*
X2342Y4202D01*
X1992Y4242D02*
X2302D01*
X1936Y4186D02*
X1992Y4242D01*
X2285Y4200D02*
X2350Y4135D01*
X2025Y4200D02*
X2285D01*
X2010Y4185D02*
X2025Y4200D01*
X2350Y4135D02*
X2390D01*
X2356Y4149D02*
X2396D01*
X2362Y4163D02*
X2402D01*
X2342Y4202D02*
X2383D01*
X2489Y4096D01*
X2529Y4135D02*
X2539Y4125D01*
X2565Y4150D02*
X2575Y4140D01*
X2605Y4165D02*
X2615Y4155D01*
X2510Y4110D02*
X4990D01*
X2489Y4096D02*
X4719D01*
X2483Y4082D02*
X4558D01*
X2477Y4068D02*
X4397D01*
X2471Y4054D02*
X4176D01*
X2460Y4040D02*
X4070D01*
X2450Y4025D02*
X3630D01*
X2440Y4010D02*
X3625D01*
X2430Y3996D02*
X3474D01*
X2424Y3982D02*
X3288D01*
X2407Y3968D02*
X3082D01*
X2387Y3953D02*
X2966D01*
X2355Y3930D02*
X2657D01*
X2493Y4127D02*
Y4127D01*
X2402Y4163D02*
X2483Y4082D01*
X2396Y4149D02*
X2477Y4068D01*
X2390Y4135D02*
X2471Y4054D01*
X2395Y4105D02*
X2460Y4040D01*
X2390Y4085D02*
X2450Y4025D01*
X2380Y4060D02*
X2390D01*
X2350Y4080D02*
Y4085D01*
Y4035D02*
X2391D01*
X2354Y3985D02*
X2354Y3985D01*
X2380Y4010D02*
X2396D01*
X2390Y3985D02*
X2407Y3968D01*
X2354Y3985D02*
X2390D01*
X2385Y4105D02*
X2395D01*
X2355Y4085D02*
X2390D01*
X2391Y4035D02*
X2430Y3996D01*
X2380Y3960D02*
X2387Y3953D01*
X2493Y4127D02*
X2510Y4110D01*
X2539Y4125D02*
X4995D01*
X2575Y4140D02*
X5000D01*
X4995Y4125D02*
X5120Y4000D01*
X2966Y3953D02*
X2985Y3935D01*
X3082Y3968D02*
X3189Y3861D01*
X3288Y3982D02*
X3315Y3955D01*
X2396Y4010D02*
X2424Y3982D01*
X3474Y3996D02*
X3515Y3955D01*
X3625Y4010D02*
X3680Y3955D01*
X2390Y4060D02*
X2440Y4010D01*
X3630Y4025D02*
X3632Y4023D01*
X3837D01*
X3875Y3985D01*
X4070Y4040D02*
X4118Y3992D01*
Y3943D02*
Y3992D01*
X4176Y4054D02*
X4290Y3940D01*
X4397Y4068D02*
X4500Y3965D01*
X4558Y4082D02*
X4665Y3975D01*
Y3945D02*
Y3975D01*
X4719Y4096D02*
X4850Y3965D01*
X4990Y4110D02*
X5130Y3970D01*
X1990Y4090D02*
X2005D01*
X1975Y4105D02*
X1990Y4090D01*
X1975Y4105D02*
X1975D01*
X1936Y4144D02*
X1975Y4105D01*
X1936Y4144D02*
Y4186D01*
X1970Y4130D02*
X2000D01*
X1950Y4150D02*
X1970Y4130D01*
X1950Y4150D02*
Y4180D01*
X1975Y4160D02*
Y4185D01*
X2380Y4110D02*
X2385Y4105D01*
X2380Y4110D02*
X2385D01*
X2350Y4080D02*
X2355Y4085D01*
X2657Y3930D02*
X2665Y3922D01*
X2029Y3936D02*
X2060D01*
X1994Y3971D02*
X2029Y3936D01*
X1994Y3971D02*
Y4053D01*
X1965Y3980D02*
Y4075D01*
X1895Y3910D02*
X1965Y3980D01*
X1935Y4006D02*
Y4050D01*
X2060Y3899D02*
Y3936D01*
X2155Y3904D02*
X2158Y3901D01*
X2179D01*
X2200Y3880D01*
X2155Y3904D02*
Y3941D01*
X2245Y3925D02*
X2261D01*
X2229D02*
X2245D01*
Y3880D02*
Y3925D01*
X1850Y3921D02*
X1935Y4006D01*
X1850Y3905D02*
Y3921D01*
X1895Y3905D02*
Y3910D01*
X2795Y3860D02*
X2800D01*
X2733Y3922D02*
X2795Y3860D01*
X2665Y3922D02*
X2733D01*
X2615Y4155D02*
X5004D01*
X5000Y4140D02*
X5126Y4014D01*
X5004Y4155D02*
X5084Y4075D01*
X2940Y3890D02*
X2985Y3935D01*
X3189Y3861D02*
X3251D01*
X3315Y3955D02*
X3315Y3955D01*
X3315Y3880D02*
Y3955D01*
X3680Y3860D02*
X3680Y3860D01*
Y3955D01*
X3615Y3855D02*
X3620Y3860D01*
X3615Y3855D02*
X3615D01*
X3515Y3955D02*
X3615Y3855D01*
X4020D02*
X4025Y3860D01*
X3975Y3855D02*
X4020D01*
X3875Y3955D02*
X3975Y3855D01*
X3875Y3955D02*
Y3985D01*
X4115Y3875D02*
Y3940D01*
X4118Y3943D01*
X4290Y3900D02*
X4330Y3860D01*
X4290Y3900D02*
Y3940D01*
X4330Y3860D02*
X4400D01*
X4850Y3954D02*
Y3965D01*
X4500Y3880D02*
Y3945D01*
Y3965D01*
X4850Y3860D02*
X4850Y3860D01*
X4850Y3860D02*
Y3954D01*
X4733Y3860D02*
X4760D01*
X4654Y3939D02*
X4733Y3860D01*
X5483Y3907D02*
X5490Y3915D01*
X5420Y3970D02*
X5483Y3907D01*
X5475Y4100D02*
X5490Y4085D01*
X5420Y4100D02*
X5475D01*
X5202Y4014D02*
X5219Y4031D01*
X5126Y4014D02*
X5202D01*
X5265Y4075D02*
X5340Y4000D01*
X5084Y4075D02*
X5265D01*
X5420Y3970D02*
Y4000D01*
X5149Y3935D02*
X5224Y3859D01*
X5130Y3935D02*
X5149D01*
X5340Y4000D02*
X5420D01*
X5130Y3935D02*
Y3970D01*
X5120Y4000D02*
X5154D01*
X5239Y3914D01*
X5289Y3864D01*
X5290Y3914D02*
X5295Y3919D01*
X5239Y3914D02*
X5290D01*
X5289Y3859D02*
Y3864D01*
D18*
X5460Y4200D02*
G03*
X5360Y4200I-50J0D01*
G01*
X5600Y4060D02*
G03*
X5460Y4200I-140J0D01*
G01*
X5360Y3800D02*
G03*
X5460Y3800I50J0D01*
G01*
D02*
G03*
X5600Y3940I0J140D01*
G01*
X1900Y4000D02*
Y4425D01*
X2430Y4200D02*
X5360D01*
X5480Y4060D02*
X5600D01*
X1225Y4000D02*
X1900D01*
X2030Y4425D02*
X2430Y4200D01*
X5480Y3940D02*
X5600D01*
X1225Y3800D02*
Y4000D01*
X1900Y4425D02*
X2030D01*
X5480Y3940D02*
Y4060D01*
X1225Y3800D02*
X5360D01*
D19*
X5410Y4200D02*
D03*
Y4100D02*
D03*
Y4000D02*
D03*
Y3900D02*
D03*
Y3800D02*
D03*
X1395Y3915D02*
D03*
X1495D02*
D03*
X1595D02*
D03*
X1695D02*
D03*
D20*
X2005Y4325D02*
D03*
D21*
X1295Y3915D02*
D03*
D22*
X2230Y4150D02*
D03*
X2529Y4135D02*
D03*
X2565Y4150D02*
D03*
X2605Y4165D02*
D03*
X2493Y4127D02*
D03*
X2380Y4060D02*
D03*
X2350Y4085D02*
D03*
Y4035D02*
D03*
X2354Y3985D02*
D03*
X2380Y4010D02*
D03*
Y3960D02*
D03*
X2355Y3930D02*
D03*
X2005Y4090D02*
D03*
X2000Y4130D02*
D03*
X1975Y4160D02*
D03*
X2010Y4185D02*
D03*
X2380Y4110D02*
D03*
X2110Y3930D02*
D03*
X1994Y4053D02*
D03*
X1965Y4075D02*
D03*
X1935Y4050D02*
D03*
X2200Y3880D02*
D03*
X2245D02*
D03*
X1935Y3905D02*
D03*
X1850D02*
D03*
X1895D02*
D03*
X2800Y3860D02*
D03*
X2560Y3835D02*
D03*
X2490Y3875D02*
D03*
X2940Y3890D02*
D03*
X3251Y3861D02*
D03*
X3315Y3880D02*
D03*
X3680Y3860D02*
D03*
X3620D02*
D03*
X4025D02*
D03*
X4115Y3875D02*
D03*
X4500Y3880D02*
D03*
X4400Y3860D02*
D03*
X4850D02*
D03*
X5380Y4150D02*
D03*
X5219Y4031D02*
D03*
X4760Y3860D02*
D03*
X5289Y3859D02*
D03*
X5224D02*
D03*
D23*
X2065Y3964D02*
D03*
Y3936D02*
D03*
Y3871D02*
D03*
Y3899D02*
D03*
X2155Y3964D02*
D03*
Y3936D02*
D03*
Y3871D02*
D03*
Y3899D02*
D03*
D24*
X2201Y3925D02*
D03*
X2229D02*
D03*
X2289D02*
D03*
X2261D02*
D03*
D25*
X3110Y3875D02*
D03*
Y3935D02*
D03*
X2665Y3863D02*
D03*
Y3922D02*
D03*
X4654Y3880D02*
D03*
Y3939D02*
D03*
X5130Y3875D02*
D03*
Y3935D02*
D03*
X2985Y3875D02*
D03*
Y3935D02*
D03*
M02*
