%FSLAX23Y23*%
%MOIN*%
G70*
G01*
G75*
G04 Layer_Color=16711935*
%ADD10R,0.028X0.035*%
%ADD11R,0.063X0.016*%
%ADD12R,0.014X0.063*%
%ADD13O,0.055X0.018*%
%ADD14R,0.035X0.031*%
%ADD15C,0.015*%
%ADD16C,0.020*%
%ADD17C,0.007*%
%ADD18C,0.005*%
%ADD19C,0.059*%
%ADD20C,0.100*%
%ADD21R,0.059X0.059*%
%ADD22C,0.029*%
%ADD23R,0.039X0.020*%
%ADD24R,0.020X0.039*%
%ADD25R,0.035X0.028*%
%ADD26C,0.010*%
%ADD27C,0.024*%
%ADD28C,0.010*%
%ADD29C,0.008*%
%ADD30R,0.030X0.037*%
%ADD31R,0.065X0.018*%
%ADD32R,0.016X0.065*%
%ADD33O,0.057X0.020*%
%ADD34R,0.037X0.033*%
%ADD35C,0.061*%
%ADD36C,0.102*%
%ADD37R,0.061X0.061*%
%ADD38R,0.041X0.022*%
%ADD39R,0.022X0.041*%
%ADD40R,0.037X0.030*%
%ADD41C,0.004*%
D18*
X5460Y4200D02*
G03*
X5360Y4200I-50J0D01*
G01*
X5600Y4060D02*
G03*
X5460Y4200I-140J0D01*
G01*
X5360Y3800D02*
G03*
X5460Y3800I50J0D01*
G01*
D02*
G03*
X5600Y3940I0J140D01*
G01*
X1900Y4000D02*
Y4425D01*
X2430Y4200D02*
X5360D01*
X5480Y4060D02*
X5600D01*
X1225Y4000D02*
X1900D01*
X2030Y4425D02*
X2430Y4200D01*
X5480Y3940D02*
X5600D01*
X1225Y3800D02*
Y4000D01*
X1900Y4425D02*
X2030D01*
X5480Y3940D02*
Y4060D01*
X1225Y3800D02*
X5360D01*
D41*
X2248Y3900D02*
G03*
X2248Y3900I-20J0D01*
G01*
X2392Y3919D02*
X2458D01*
X2392Y3881D02*
X2458D01*
X2392D02*
Y3919D01*
X2458Y3881D02*
Y3919D01*
X1932Y3991D02*
X1998D01*
X1932Y4029D02*
X1998D01*
Y3991D02*
Y4029D01*
X1932Y3991D02*
Y4029D01*
X1902Y3941D02*
X1969D01*
X1902Y3979D02*
X1969D01*
Y3941D02*
Y3979D01*
X1902Y3941D02*
Y3979D01*
X5487Y3881D02*
Y3919D01*
X5553Y3881D02*
Y3919D01*
X5487Y3881D02*
X5553D01*
X5487Y3919D02*
X5553D01*
X5487Y4081D02*
Y4119D01*
X5553Y4081D02*
Y4119D01*
X5487Y4081D02*
X5553D01*
X5487Y4119D02*
X5553D01*
X2244Y4051D02*
Y4119D01*
X2206Y4051D02*
Y4119D01*
Y4051D02*
X2244D01*
X2206Y4119D02*
X2244D01*
X3452Y3936D02*
X3518D01*
X3452Y3974D02*
X3518D01*
X3452Y3936D02*
Y3974D01*
X3518Y3936D02*
Y3974D01*
X3677Y3974D02*
X3743D01*
X3677Y3936D02*
X3743D01*
Y3974D01*
X3677Y3936D02*
Y3974D01*
X3312D02*
X3378D01*
X3312Y3936D02*
X3378D01*
Y3974D01*
X3312Y3936D02*
Y3974D01*
X3129Y3872D02*
Y3938D01*
X3091Y3872D02*
Y3938D01*
Y3872D02*
X3129D01*
X3091Y3938D02*
X3129D01*
X4846Y3973D02*
X4913D01*
X4846Y3936D02*
X4913D01*
Y3973D01*
X4846Y3936D02*
Y3973D01*
X4227Y3921D02*
X4293D01*
X4227Y3959D02*
X4293D01*
X4227Y3921D02*
Y3959D01*
X4293Y3921D02*
Y3959D01*
X2684Y3859D02*
Y3926D01*
X2646Y3859D02*
Y3926D01*
Y3859D02*
X2684D01*
X2646Y3926D02*
X2684D01*
X3812Y3936D02*
X3878D01*
X3812Y3974D02*
X3878D01*
X3812Y3936D02*
Y3974D01*
X3878Y3936D02*
Y3974D01*
X4673Y3876D02*
Y3943D01*
X4636Y3876D02*
Y3943D01*
Y3876D02*
X4673D01*
X4636Y3943D02*
X4673D01*
X4111Y3959D02*
X4178D01*
X4111Y3921D02*
X4178D01*
Y3959D01*
X4111Y3921D02*
Y3959D01*
X5149Y3872D02*
Y3938D01*
X5111Y3872D02*
Y3938D01*
Y3872D02*
X5149D01*
X5111Y3938D02*
X5149D01*
X5287Y3939D02*
X5353D01*
X5287Y3901D02*
X5353D01*
Y3939D01*
X5287Y3901D02*
Y3939D01*
X4497Y3964D02*
X4563D01*
X4497Y3926D02*
X4563D01*
Y3964D01*
X4497Y3926D02*
Y3964D01*
X3004Y3872D02*
Y3938D01*
X2966Y3872D02*
Y3938D01*
Y3872D02*
X3004D01*
X2966Y3938D02*
X3004D01*
X2086Y4176D02*
X2264D01*
X2086Y3864D02*
X2264D01*
X2086D02*
Y4176D01*
X2264Y3864D02*
Y4176D01*
X2684Y4046D02*
Y4114D01*
X2646Y4046D02*
Y4114D01*
X2684D01*
X2646Y4046D02*
X2684D01*
X3074Y4040D02*
Y4109D01*
X3037Y4040D02*
Y4109D01*
X3074D01*
X3037Y4040D02*
X3074D01*
X3480D02*
Y4109D01*
X3443Y4040D02*
Y4109D01*
X3480D01*
X3443Y4040D02*
X3480D01*
X3866D02*
Y4109D01*
X3829Y4040D02*
Y4109D01*
X3866D01*
X3829Y4040D02*
X3866D01*
X4257D02*
Y4109D01*
X4220Y4040D02*
Y4109D01*
X4257D01*
X4220Y4040D02*
X4257D01*
X4638D02*
Y4109D01*
X4601Y4040D02*
Y4109D01*
X4638D01*
X4601Y4040D02*
X4638D01*
X5059D02*
Y4109D01*
X5022Y4040D02*
Y4109D01*
X5059D01*
X5022Y4040D02*
X5059D01*
X3008D02*
Y4109D01*
X2971Y4040D02*
Y4109D01*
X3008D01*
X2971Y4040D02*
X3008D01*
X3424D02*
Y4109D01*
X3387Y4040D02*
Y4109D01*
X3424D01*
X3387Y4040D02*
X3424D01*
X3800D02*
Y4109D01*
X3763Y4040D02*
Y4109D01*
X3800D01*
X3763Y4040D02*
X3800D01*
X4196D02*
Y4109D01*
X4159Y4040D02*
Y4109D01*
X4196D01*
X4159Y4040D02*
X4196D01*
X4579Y4041D02*
Y4109D01*
X4541Y4041D02*
Y4109D01*
X4579D01*
X4541Y4041D02*
X4579D01*
X4974D02*
Y4109D01*
X4936Y4041D02*
Y4109D01*
X4974D01*
X4936Y4041D02*
X4974D01*
X5359D02*
Y4109D01*
X5321Y4041D02*
Y4109D01*
X5359D01*
X5321Y4041D02*
X5359D01*
X2646Y3886D02*
Y3954D01*
X2684Y3886D02*
Y3954D01*
X2646Y3886D02*
X2684D01*
X2646Y3954D02*
X2684D01*
X3037Y3885D02*
Y3954D01*
X3074Y3885D02*
Y3954D01*
X3037Y3885D02*
X3074D01*
X3037Y3954D02*
X3074D01*
X3443Y3885D02*
Y3954D01*
X3480Y3885D02*
Y3954D01*
X3443Y3885D02*
X3480D01*
X3443Y3954D02*
X3480D01*
X3829Y3885D02*
Y3954D01*
X3866Y3885D02*
Y3954D01*
X3829Y3885D02*
X3866D01*
X3829Y3954D02*
X3866D01*
X4220Y3885D02*
Y3954D01*
X4257Y3885D02*
Y3954D01*
X4220Y3885D02*
X4257D01*
X4220Y3954D02*
X4257D01*
X4601Y3885D02*
Y3954D01*
X4638Y3885D02*
Y3954D01*
X4601Y3885D02*
X4638D01*
X4601Y3954D02*
X4638D01*
X5016Y3886D02*
Y3954D01*
X5054Y3886D02*
Y3954D01*
X5016Y3886D02*
X5054D01*
X5016Y3954D02*
X5054D01*
X2971Y3885D02*
Y3954D01*
X3008Y3885D02*
Y3954D01*
X2971Y3885D02*
X3008D01*
X2971Y3954D02*
X3008D01*
X3387Y3885D02*
Y3954D01*
X3424Y3885D02*
Y3954D01*
X3387Y3885D02*
X3424D01*
X3387Y3954D02*
X3424D01*
X3763Y3885D02*
Y3954D01*
X3800Y3885D02*
Y3954D01*
X3763Y3885D02*
X3800D01*
X3763Y3954D02*
X3800D01*
X4159Y3885D02*
Y3954D01*
X4196Y3885D02*
Y3954D01*
X4159Y3885D02*
X4196D01*
X4159Y3954D02*
X4196D01*
X4541Y3886D02*
Y3954D01*
X4579Y3886D02*
Y3954D01*
X4541Y3886D02*
X4579D01*
X4541Y3954D02*
X4579D01*
X4931Y3886D02*
Y3954D01*
X4969Y3886D02*
Y3954D01*
X4931Y3886D02*
X4969D01*
X4931Y3954D02*
X4969D01*
X5321Y3886D02*
Y3954D01*
X5359Y3886D02*
Y3954D01*
X5321Y3886D02*
X5359D01*
X5321Y3954D02*
X5359D01*
X1999Y3846D02*
Y3914D01*
X1961Y3846D02*
Y3914D01*
X1999D01*
X1961Y3846D02*
X1999D01*
M02*
