%FSLAX23Y23*%
%MOIN*%
G70*
G01*
G75*
G04 Layer_Color=32768*
%ADD10R,0.028X0.035*%
%ADD11R,0.063X0.016*%
%ADD12R,0.014X0.063*%
%ADD13O,0.055X0.018*%
%ADD14R,0.035X0.031*%
%ADD15C,0.015*%
%ADD16C,0.020*%
%ADD17C,0.007*%
%ADD18C,0.005*%
%ADD19C,0.059*%
%ADD20C,0.100*%
%ADD21R,0.059X0.059*%
%ADD22C,0.029*%
%ADD23R,0.039X0.020*%
%ADD24R,0.020X0.039*%
%ADD25R,0.035X0.028*%
%ADD26C,0.010*%
%ADD27C,0.024*%
%ADD28C,0.010*%
%ADD29C,0.008*%
%ADD30R,0.030X0.037*%
%ADD31R,0.065X0.018*%
%ADD32R,0.016X0.065*%
%ADD33O,0.057X0.020*%
%ADD34R,0.037X0.033*%
%ADD35C,0.061*%
%ADD36C,0.102*%
%ADD37R,0.061X0.061*%
%ADD38R,0.041X0.022*%
%ADD39R,0.022X0.041*%
%ADD40R,0.037X0.030*%
%ADD41C,0.004*%
%ADD42C,0.002*%
D18*
X5460Y4200D02*
G03*
X5360Y4200I-50J0D01*
G01*
X5600Y4060D02*
G03*
X5460Y4200I-140J0D01*
G01*
X5360Y3800D02*
G03*
X5460Y3800I50J0D01*
G01*
D02*
G03*
X5600Y3940I0J140D01*
G01*
X1900Y4000D02*
Y4425D01*
X2430Y4200D02*
X5360D01*
X5480Y4060D02*
X5600D01*
X1225Y4000D02*
X1900D01*
X2030Y4425D02*
X2430Y4200D01*
X5480Y3940D02*
X5600D01*
X1225Y3800D02*
Y4000D01*
X1900Y4425D02*
X2030D01*
X5480Y3940D02*
Y4060D01*
X1225Y3800D02*
X5360D01*
D41*
X2425Y3881D02*
Y3919D01*
X2406Y3900D02*
X2444D01*
X2378Y3922D02*
X2472D01*
X2378Y3878D02*
X2472D01*
X2378D02*
Y3922D01*
X2472Y3878D02*
Y3922D01*
X1965Y3991D02*
Y4029D01*
X1946Y4010D02*
X1984D01*
X1918Y3988D02*
X2012D01*
X1918Y4032D02*
X2012D01*
Y3988D02*
Y4032D01*
X1918Y3988D02*
Y4032D01*
X1935Y3941D02*
Y3979D01*
X1917Y3960D02*
X1954D01*
X1888Y3938D02*
X1983D01*
X1888Y3982D02*
X1983D01*
Y3938D02*
Y3982D01*
X1888Y3938D02*
Y3982D01*
X5473Y3878D02*
Y3922D01*
X5567Y3878D02*
Y3922D01*
X5473Y3878D02*
X5567D01*
X5473Y3922D02*
X5567D01*
X5501Y3900D02*
X5539D01*
X5520Y3881D02*
Y3919D01*
X5473Y4078D02*
Y4122D01*
X5567Y4078D02*
Y4122D01*
X5473Y4078D02*
X5567D01*
X5473Y4122D02*
X5567D01*
X5501Y4100D02*
X5539D01*
X5520Y4081D02*
Y4119D01*
X2206Y4085D02*
X2244D01*
X2225Y4066D02*
Y4104D01*
X2247Y4038D02*
Y4132D01*
X2203Y4038D02*
Y4132D01*
Y4038D02*
X2247D01*
X2203Y4132D02*
X2247D01*
X3485Y3936D02*
Y3974D01*
X3466Y3955D02*
X3504D01*
X3438Y3933D02*
X3532D01*
X3438Y3977D02*
X3532D01*
X3438Y3933D02*
Y3977D01*
X3532Y3933D02*
Y3977D01*
X3710Y3936D02*
Y3974D01*
X3691Y3955D02*
X3729D01*
X3663Y3977D02*
X3757D01*
X3663Y3933D02*
X3757D01*
Y3977D01*
X3663Y3933D02*
Y3977D01*
X3345Y3936D02*
Y3974D01*
X3326Y3955D02*
X3364D01*
X3298Y3977D02*
X3392D01*
X3298Y3933D02*
X3392D01*
Y3977D01*
X3298Y3933D02*
Y3977D01*
X3091Y3905D02*
X3129D01*
X3110Y3886D02*
Y3924D01*
X3132Y3858D02*
Y3952D01*
X3088Y3858D02*
Y3952D01*
Y3858D02*
X3132D01*
X3088Y3952D02*
X3132D01*
X4879Y3936D02*
Y3973D01*
X4861Y3954D02*
X4898D01*
X4832Y3976D02*
X4927D01*
X4832Y3933D02*
X4927D01*
Y3976D01*
X4832Y3933D02*
Y3976D01*
X4260Y3921D02*
Y3959D01*
X4241Y3940D02*
X4279D01*
X4213Y3918D02*
X4307D01*
X4213Y3962D02*
X4307D01*
X4213Y3918D02*
Y3962D01*
X4307Y3918D02*
Y3962D01*
X2646Y3892D02*
X2684D01*
X2665Y3874D02*
Y3911D01*
X2687Y3845D02*
Y3940D01*
X2643Y3845D02*
Y3940D01*
Y3845D02*
X2687D01*
X2643Y3940D02*
X2687D01*
X3845Y3936D02*
Y3974D01*
X3826Y3955D02*
X3864D01*
X3798Y3933D02*
X3892D01*
X3798Y3977D02*
X3892D01*
X3798Y3933D02*
Y3977D01*
X3892Y3933D02*
Y3977D01*
X4636Y3909D02*
X4673D01*
X4654Y3891D02*
Y3928D01*
X4676Y3862D02*
Y3957D01*
X4633Y3862D02*
Y3957D01*
Y3862D02*
X4676D01*
X4633Y3957D02*
X4676D01*
X4145Y3921D02*
Y3959D01*
X4126Y3940D02*
X4163D01*
X4097Y3962D02*
X4192D01*
X4097Y3918D02*
X4192D01*
Y3962D01*
X4097Y3918D02*
Y3962D01*
X5111Y3905D02*
X5149D01*
X5130Y3886D02*
Y3924D01*
X5152Y3858D02*
Y3952D01*
X5108Y3858D02*
Y3952D01*
Y3858D02*
X5152D01*
X5108Y3952D02*
X5152D01*
X5320Y3901D02*
Y3939D01*
X5301Y3920D02*
X5339D01*
X5273Y3942D02*
X5367D01*
X5273Y3898D02*
X5367D01*
Y3942D01*
X5273Y3898D02*
Y3942D01*
X4530Y3926D02*
Y3964D01*
X4511Y3945D02*
X4549D01*
X4483Y3967D02*
X4577D01*
X4483Y3923D02*
X4577D01*
Y3967D01*
X4483Y3923D02*
Y3967D01*
X2966Y3905D02*
X3004D01*
X2985Y3886D02*
Y3924D01*
X3007Y3858D02*
Y3952D01*
X2963Y3858D02*
Y3952D01*
Y3858D02*
X3007D01*
X2963Y3952D02*
X3007D01*
X2175Y4000D02*
Y4040D01*
X2155Y4020D02*
X2195D01*
X2646Y4080D02*
X2684D01*
X2665Y4061D02*
Y4099D01*
X2687Y4033D02*
Y4127D01*
X2643Y4033D02*
Y4127D01*
X2687D01*
X2643Y4033D02*
X2687D01*
X3037Y4074D02*
X3074D01*
X3055Y4056D02*
Y4093D01*
X3077Y4027D02*
Y4122D01*
X3034Y4027D02*
Y4122D01*
X3077D01*
X3034Y4027D02*
X3077D01*
X3443Y4074D02*
X3480D01*
X3461Y4056D02*
Y4093D01*
X3483Y4027D02*
Y4122D01*
X3440Y4027D02*
Y4122D01*
X3483D01*
X3440Y4027D02*
X3483D01*
X3829Y4074D02*
X3866D01*
X3847Y4056D02*
Y4093D01*
X3869Y4027D02*
Y4122D01*
X3826Y4027D02*
Y4122D01*
X3869D01*
X3826Y4027D02*
X3869D01*
X4220Y4074D02*
X4257D01*
X4238Y4056D02*
Y4093D01*
X4260Y4027D02*
Y4122D01*
X4217Y4027D02*
Y4122D01*
X4260D01*
X4217Y4027D02*
X4260D01*
X4601Y4074D02*
X4638D01*
X4619Y4056D02*
Y4093D01*
X4641Y4027D02*
Y4122D01*
X4598Y4027D02*
Y4122D01*
X4641D01*
X4598Y4027D02*
X4641D01*
X5022Y4074D02*
X5059D01*
X5040Y4056D02*
Y4093D01*
X5062Y4027D02*
Y4122D01*
X5019Y4027D02*
Y4122D01*
X5062D01*
X5019Y4027D02*
X5062D01*
X2971Y4074D02*
X3008D01*
X2989Y4056D02*
Y4093D01*
X3011Y4027D02*
Y4122D01*
X2968Y4027D02*
Y4122D01*
X3011D01*
X2968Y4027D02*
X3011D01*
X3387Y4074D02*
X3424D01*
X3405Y4056D02*
Y4093D01*
X3427Y4027D02*
Y4122D01*
X3384Y4027D02*
Y4122D01*
X3427D01*
X3384Y4027D02*
X3427D01*
X3763Y4074D02*
X3800D01*
X3781Y4056D02*
Y4093D01*
X3803Y4027D02*
Y4122D01*
X3760Y4027D02*
Y4122D01*
X3803D01*
X3760Y4027D02*
X3803D01*
X4159Y4074D02*
X4196D01*
X4177Y4056D02*
Y4093D01*
X4199Y4027D02*
Y4122D01*
X4156Y4027D02*
Y4122D01*
X4199D01*
X4156Y4027D02*
X4199D01*
X4541Y4075D02*
X4579D01*
X4560Y4056D02*
Y4094D01*
X4582Y4028D02*
Y4122D01*
X4538Y4028D02*
Y4122D01*
X4582D01*
X4538Y4028D02*
X4582D01*
X4936Y4075D02*
X4974D01*
X4955Y4056D02*
Y4094D01*
X4977Y4028D02*
Y4122D01*
X4933Y4028D02*
Y4122D01*
X4977D01*
X4933Y4028D02*
X4977D01*
X5321Y4075D02*
X5359D01*
X5340Y4056D02*
Y4094D01*
X5362Y4028D02*
Y4122D01*
X5318Y4028D02*
Y4122D01*
X5362D01*
X5318Y4028D02*
X5362D01*
X2646Y3920D02*
X2684D01*
X2665Y3901D02*
Y3939D01*
X2643Y3873D02*
Y3967D01*
X2687Y3873D02*
Y3967D01*
X2643Y3873D02*
X2687D01*
X2643Y3967D02*
X2687D01*
X3037Y3919D02*
X3074D01*
X3055Y3901D02*
Y3938D01*
X3034Y3872D02*
Y3967D01*
X3077Y3872D02*
Y3967D01*
X3034Y3872D02*
X3077D01*
X3034Y3967D02*
X3077D01*
X3443Y3919D02*
X3480D01*
X3461Y3901D02*
Y3938D01*
X3440Y3872D02*
Y3967D01*
X3483Y3872D02*
Y3967D01*
X3440Y3872D02*
X3483D01*
X3440Y3967D02*
X3483D01*
X3829Y3919D02*
X3866D01*
X3847Y3901D02*
Y3938D01*
X3826Y3872D02*
Y3967D01*
X3869Y3872D02*
Y3967D01*
X3826Y3872D02*
X3869D01*
X3826Y3967D02*
X3869D01*
X4220Y3919D02*
X4257D01*
X4238Y3901D02*
Y3938D01*
X4217Y3872D02*
Y3967D01*
X4260Y3872D02*
Y3967D01*
X4217Y3872D02*
X4260D01*
X4217Y3967D02*
X4260D01*
X4601Y3919D02*
X4638D01*
X4619Y3901D02*
Y3938D01*
X4598Y3872D02*
Y3967D01*
X4641Y3872D02*
Y3967D01*
X4598Y3872D02*
X4641D01*
X4598Y3967D02*
X4641D01*
X5016Y3920D02*
X5054D01*
X5035Y3901D02*
Y3939D01*
X5013Y3873D02*
Y3967D01*
X5057Y3873D02*
Y3967D01*
X5013Y3873D02*
X5057D01*
X5013Y3967D02*
X5057D01*
X2971Y3919D02*
X3008D01*
X2989Y3901D02*
Y3938D01*
X2968Y3872D02*
Y3967D01*
X3011Y3872D02*
Y3967D01*
X2968Y3872D02*
X3011D01*
X2968Y3967D02*
X3011D01*
X3387Y3919D02*
X3424D01*
X3405Y3901D02*
Y3938D01*
X3384Y3872D02*
Y3967D01*
X3427Y3872D02*
Y3967D01*
X3384Y3872D02*
X3427D01*
X3384Y3967D02*
X3427D01*
X3763Y3919D02*
X3800D01*
X3781Y3901D02*
Y3938D01*
X3760Y3872D02*
Y3967D01*
X3803Y3872D02*
Y3967D01*
X3760Y3872D02*
X3803D01*
X3760Y3967D02*
X3803D01*
X4159Y3919D02*
X4196D01*
X4177Y3901D02*
Y3938D01*
X4156Y3872D02*
Y3967D01*
X4199Y3872D02*
Y3967D01*
X4156Y3872D02*
X4199D01*
X4156Y3967D02*
X4199D01*
X4541Y3920D02*
X4579D01*
X4560Y3901D02*
Y3939D01*
X4538Y3873D02*
Y3967D01*
X4582Y3873D02*
Y3967D01*
X4538Y3873D02*
X4582D01*
X4538Y3967D02*
X4582D01*
X4931Y3920D02*
X4969D01*
X4950Y3901D02*
Y3939D01*
X4928Y3873D02*
Y3967D01*
X4972Y3873D02*
Y3967D01*
X4928Y3873D02*
X4972D01*
X4928Y3967D02*
X4972D01*
X5321Y3920D02*
X5359D01*
X5340Y3901D02*
Y3939D01*
X5318Y3873D02*
Y3967D01*
X5362Y3873D02*
Y3967D01*
X5318Y3873D02*
X5362D01*
X5318Y3967D02*
X5362D01*
X1961Y3880D02*
X1999D01*
X1980Y3861D02*
Y3899D01*
X2002Y3833D02*
Y3927D01*
X1958Y3833D02*
Y3927D01*
X2002D01*
X1958Y3833D02*
X2002D01*
D42*
X2021Y4185D02*
X2329D01*
X2021Y3855D02*
X2329D01*
X2021D02*
Y4185D01*
X2329Y3855D02*
Y4185D01*
M02*
