M48
;Layer_Color=9474304
;FILE_FORMAT=2:3
INCH,LZ
;TYPE=PLATED
T1F00S00C0.015
T2F00S00C0.035
T3F00S00C0.100
;TYPE=NON_PLATED
%
T01
X0185Y03905
X01895
X01935
Y0405
X01965Y04075
X01994Y04053
X02005Y0409
X02Y0413
X01975Y0416
X0201Y04185
X0223Y0415
X0235Y04085
Y04035
X02354Y03985
X0238Y0396
Y0401
Y0406
Y0411
X02493Y04127
X02529Y04135
X02565Y0415
X02605Y04165
X0256Y03835
X0249Y03875
X02355Y0393
X02245Y0388
X022
X0211Y0393
X028Y0386
X0294Y0389
X03251Y03861
X03315Y0388
X0362Y0386
X0368
X04025
X04115Y03875
X044Y0386
X045Y0388
X0476Y0386
X0485
X05224Y03859
X05289
X05219Y04031
X0538Y0415
T02
X01295Y03915
X01395
X01495
X01595
X01695
X0541Y039
Y04
Y041
Y042
Y038
T03
X02005Y04325
M30
