M48
;Layer_Color=9474304
;FILE_FORMAT=2:3
INCH,LZ
T4F00S00C0.001
%
G90
G05
T04
G00X05423Y03751
M15
G01X05436Y03756
G01X05446Y03764
G01X05454Y03775
G01X05459Y03787
G01X05461Y03799
G01X05482Y03801
G01X05504Y03806
G01X05524Y03814
G01X05543Y03826
G01X0556Y0384
G01X05574Y03857
G01X05586Y03876
G01X05594Y03896
G01X05599Y03918
G01X05601Y0394
G01X056Y0394
G01X0548Y0394
G01X0548Y0406
G01X056Y0406
G01X05601Y0406
G01X05599Y04082
G01X05594Y04104
G01X05586Y04124
G01X05574Y04143
G01X0556Y0416
G01X05543Y04174
G01X05524Y04186
G01X05504Y04194
G01X05482Y04199
G01X05461Y04201
G01X05459Y04213
G01X05454Y04226
G01X05446Y04236
G01X05435Y04244
G01X05423Y04249
G01X0541Y04251
G01X05397Y04249
G01X05384Y04244
G01X05374Y04236
G01X05366Y04225
G01X05361Y04213
G01X05359Y042
G01X0243Y042
G01X0203Y04426
G01X019Y04426
G01X019Y04425
G01X019Y04001
G01X01225Y04001
G01X01224Y04
G01X01224Y038
G01X01225Y038
G01X05359Y038
G01X05361Y03787
G01X05366Y03774
G01X05374Y03764
G01X05385Y03756
G01X05397Y03751
G01X0541Y03749
G01X05423Y03751
M16
M17
M30
